<svg width="10" height="6" viewBox="0 0 10 6" fill="none" xmlns="http://www.w3.org/2000/svg">
<path fill-rule="evenodd" clip-rule="evenodd" d="M4.67714 5.03183C4.85911 5.20104 5.14086 5.20104 5.32283 5.03183L9.84873 0.823257C10.0504 0.635707 10.0504 0.316356 9.84873 0.128806C9.66674 -0.0404255 9.38496 -0.0404252 9.20297 0.128806L7.26344 1.93234C5.98824 3.11814 4.01383 3.11814 2.73863 1.93234L0.797081 0.126923C0.61509 -0.0423078 0.333312 -0.0423079 0.15132 0.126923C-0.0503712 0.314474 -0.0503721 0.633824 0.15132 0.821375L4.30422 4.6831C4.30451 4.68336 4.30451 4.68382 4.30422 4.68408C4.30394 4.68435 4.30394 4.6848 4.30422 4.68506L4.67714 5.03183Z" fill="#F5F5F5"/>
</svg>
