<svg width="121" height="120" viewBox="0 0 121 120" fill="none" xmlns="http://www.w3.org/2000/svg">
<circle cx="60.5" cy="60" r="59.5" stroke="#00933B"/>
<circle cx="60.5" cy="60" r="55" fill="#00933B"/>
<path fill-rule="evenodd" clip-rule="evenodd" d="M39.8337 65.9968C38.3609 64.5241 35.9731 64.5241 34.5003 65.9968L33.167 67.3302C31.6942 68.8029 31.6942 71.1907 33.1669 72.6635L46.5279 86.0243C46.5706 86.0712 46.6147 86.1173 46.66 86.1627L47.6698 87.1725C47.7152 87.2178 47.7613 87.2618 47.8082 87.3045C49.281 88.7773 51.6945 88.8029 53.1673 87.3302L53.253 87.2444C53.2778 87.2208 53.3024 87.1969 53.3267 87.1725L87.6705 52.8293C89.2326 51.2672 89.2326 48.7346 87.6705 47.1725L86.6606 46.1627C85.0985 44.6006 82.5658 44.6006 81.0037 46.1627L53.1682 73.9977C51.6954 75.4705 49.3075 75.4705 47.8348 73.9977L39.8337 65.9968Z" fill="#F5F5F5"/>
</svg>
