<svg width="12" height="12" viewBox="0 0 12 12" fill="none" xmlns="http://www.w3.org/2000/svg">
<path fill-rule="evenodd" clip-rule="evenodd" d="M3.80013 2.80378C3.63444 2.63809 3.36581 2.63809 3.20013 2.80378L2.80013 3.20378C2.63444 3.36946 2.63444 3.63809 2.80013 3.80378L4.69936 5.70301C4.86505 5.8687 4.86505 6.13733 4.69936 6.30301L2.79923 8.20314C2.63355 8.36882 2.63355 8.63745 2.79923 8.80314L3.19923 9.20314C3.36492 9.36882 3.63355 9.36882 3.79923 9.20314L5.69936 7.30301C5.86504 7.13733 6.13367 7.13732 6.29936 7.30301L8.20013 9.20378C8.36581 9.36946 8.63444 9.36946 8.80013 9.20378L9.20013 8.80378C9.36581 8.63809 9.36581 8.36946 9.20013 8.20378L7.29936 6.30301C7.13367 6.13733 7.13367 5.8687 7.29936 5.70301L9.19923 3.80314C9.36492 3.63745 9.36492 3.36882 9.19923 3.20314L8.79923 2.80314C8.63355 2.63745 8.36492 2.63745 8.19923 2.80314L6.29936 4.70301C6.13367 4.8687 5.86504 4.8687 5.69936 4.70301L3.80013 2.80378Z" fill="#F5F5F5"/>
</svg>
