<svg width="10" height="11" viewBox="0 0 10 11" fill="none" xmlns="http://www.w3.org/2000/svg">
<g clip-path="url(#clip0_668_2379)">
<path opacity="0.99" fill-rule="evenodd" clip-rule="evenodd" d="M1.33789 0.490234C2.80273 0.490234 4.26758 0.490234 5.73242 0.490234C6.30385 0.595728 6.71074 0.914738 6.95312 1.44727C7.00096 1.56699 7.03352 1.69068 7.05078 1.81836C7.06381 2.19596 7.06381 2.57357 7.05078 2.95117C6.94404 3.20189 6.7585 3.28326 6.49414 3.19531C6.38693 3.14711 6.31857 3.06572 6.28906 2.95117C6.28256 2.6517 6.27604 2.35221 6.26953 2.05273C6.2207 1.58724 5.96354 1.33008 5.49805 1.28125C4.18945 1.26823 2.88086 1.26823 1.57227 1.28125C1.10677 1.33008 0.849609 1.58724 0.800781 2.05273C0.78776 4.34439 0.78776 6.63607 0.800781 8.92773C0.849609 9.39322 1.10677 9.65039 1.57227 9.69922C2.88086 9.71225 4.18945 9.71225 5.49805 9.69922C5.96354 9.65039 6.2207 9.39322 6.26953 8.92773C6.27604 8.62826 6.28256 8.32877 6.28906 8.0293C6.3958 7.77857 6.58135 7.69721 6.8457 7.78516C6.95291 7.83336 7.02127 7.91475 7.05078 8.0293C7.06381 8.40689 7.06381 8.78451 7.05078 9.16211C6.95322 9.73799 6.63746 10.1449 6.10352 10.3828C5.97992 10.4283 5.85621 10.4641 5.73242 10.4902C4.26758 10.4902 2.80273 10.4902 1.33789 10.4902C0.695988 10.3596 0.269557 9.98197 0.0585938 9.35742C0.0413748 9.29318 0.0283539 9.22807 0.0195313 9.16211C0.00651042 6.7142 0.00651042 4.26627 0.0195313 1.81836C0.117091 1.24248 0.432846 0.835584 0.966797 0.597656C1.09039 0.552205 1.21409 0.516398 1.33789 0.490234Z" fill="#380835"/>
<path opacity="0.987" fill-rule="evenodd" clip-rule="evenodd" d="M9.99019 5.25723C9.99019 5.4265 9.99019 5.59576 9.99019 5.76504C9.94993 5.89762 9.8881 6.02133 9.80464 6.13613C9.47587 6.4649 9.14708 6.79369 8.81831 7.12246C8.60315 7.2367 8.41108 7.2074 8.24214 7.03457C8.15099 6.87832 8.15099 6.72207 8.24214 6.56582C8.46024 6.34771 8.67833 6.12963 8.89644 5.91152C7.30138 5.90502 5.70634 5.8985 4.11128 5.89199C3.88327 5.80396 3.79538 5.63795 3.84761 5.39395C3.88341 5.25396 3.9713 5.16607 4.11128 5.13027C5.70634 5.12377 7.30138 5.11725 8.89644 5.11074C8.67833 4.89264 8.46024 4.67455 8.24214 4.45645C8.1078 4.18236 8.17616 3.97729 8.44722 3.84121C8.57903 3.81521 8.70272 3.83475 8.81831 3.8998C9.14708 4.22857 9.47587 4.55736 9.80464 4.88613C9.8881 5.00094 9.94993 5.12465 9.99019 5.25723Z" fill="#380835"/>
</g>
<defs>
<clipPath id="clip0_668_2379">
<rect width="10" height="10" fill="white" transform="translate(0 0.5)"/>
</clipPath>
</defs>
</svg>
