<svg width="16" height="17" viewBox="0 0 16 17" fill="none" xmlns="http://www.w3.org/2000/svg">
<path opacity="0.964" fill-rule="evenodd" clip-rule="evenodd" d="M7.29688 0.484375C7.75522 0.484375 8.21353 0.484375 8.67188 0.484375C11.4861 0.815447 13.6059 2.20086 15.0312 4.64062C15.558 5.63369 15.8757 6.68578 15.9844 7.79688C15.9844 8.25522 15.9844 8.71353 15.9844 9.17188C15.6533 11.9861 14.2679 14.1059 11.8281 15.5312C10.8351 16.058 9.78297 16.3757 8.67188 16.4844C8.21353 16.4844 7.75522 16.4844 7.29688 16.4844C4.48266 16.1533 2.36287 14.7679 0.9375 12.3281C0.410778 11.3351 0.0930694 10.283 -0.015625 9.17188C-0.015625 8.71353 -0.015625 8.25522 -0.015625 7.79688C0.315447 4.98266 1.70086 2.86287 4.14062 1.4375C5.13369 0.910778 6.18578 0.593069 7.29688 0.484375ZM7.32812 1.45312C10.3624 1.32141 12.6488 2.55058 14.1875 5.14062C15.1525 7.04403 15.2775 9.00234 14.5625 11.0156C14.2592 11.758 13.853 12.4351 13.3438 13.0469C12.7934 11.2467 11.6528 9.98106 9.92188 9.25C10.9685 8.45531 11.4425 7.39803 11.3438 6.07812C11.0493 4.41913 10.0753 3.43474 8.42188 3.125C6.75313 3.00855 5.56041 3.70125 4.84375 5.20312C4.33594 6.69781 4.65363 7.98428 5.79688 9.0625C5.88022 9.125 5.96353 9.1875 6.04688 9.25C4.307 9.97388 3.16637 11.2395 2.625 13.0469C1.11353 11.1881 0.62395 9.08391 1.15625 6.73438C1.93229 4.125 3.625 2.43229 6.23438 1.65625C6.60078 1.57443 6.96537 1.50672 7.32812 1.45312ZM7.60938 4.07812C8.72256 3.98103 9.56109 4.40809 10.125 5.35938C10.6438 6.57056 10.399 7.59659 9.39062 8.4375C8.38991 9.06634 7.41072 9.03509 6.45312 8.34375C5.54675 7.49447 5.34363 6.49969 5.84375 5.35938C6.24434 4.67219 6.83288 4.24509 7.60938 4.07812ZM7.60938 9.89062C9.71672 9.84722 11.2323 10.7639 12.1562 12.6406C12.3399 13.0519 12.4388 13.479 12.4531 13.9219C10.3663 15.5405 8.06428 15.9312 5.54688 15.0938C4.84325 14.8254 4.19741 14.4608 3.60938 14C3.54109 13.961 3.49944 13.9038 3.48438 13.8281C3.82909 11.9356 4.91244 10.6804 6.73438 10.0625C7.02728 9.98888 7.31894 9.93159 7.60938 9.89062Z" fill="#F5F5F5"/>
</svg>
