<svg width="240" height="240" viewBox="0 0 240 240" fill="none" xmlns="http://www.w3.org/2000/svg">
<g clip-path="url(#clip0_623_688)">
<path opacity="0.952" fill-rule="evenodd" clip-rule="evenodd" d="M63.5156 -0.234375C90.8592 -0.234375 118.203 -0.234375 145.547 -0.234375C149.235 1.98578 150.797 5.26702 150.234 9.60938C159.142 9.53128 168.048 9.60942 176.953 9.84375C188.361 12.6577 194.532 19.9233 195.469 31.6406C195.547 36.875 195.625 42.1094 195.703 47.3438C195.763 53.228 195.528 59.0873 195 64.9219C193.048 67.3645 190.627 67.9116 187.734 66.5625C187.008 65.9934 186.462 65.2903 186.094 64.4531C185.938 53.6719 185.781 42.8906 185.625 32.1094C184.98 25.73 181.62 21.5894 175.547 19.6875C167.111 19.4532 158.673 19.375 150.234 19.4531C150.513 24.9209 148.013 28.2803 142.734 29.5312C117.266 29.8438 91.7967 29.8438 66.3281 29.5312C61.0608 28.2466 58.5609 24.8872 58.8281 19.4531C50.3892 19.375 41.9517 19.4532 33.5156 19.6875C28.4251 21.0281 25.2219 24.2312 23.9063 29.2969C23.44 89.6353 23.5963 149.948 24.375 210.234C26.6718 215.095 30.4999 217.83 35.8594 218.438C73.672 218.75 111.484 218.75 149.297 218.438C140.56 209.479 135.248 198.776 133.359 186.328C104.453 186.406 75.5466 186.328 46.6406 186.094C44.2734 185.422 43.1797 183.859 43.3594 181.406C43.2179 179.188 44.1554 177.626 46.1719 176.719C75.0778 176.484 103.984 176.406 132.891 176.484C132.891 170.391 132.891 164.297 132.891 158.203C105.078 158.281 77.265 158.203 49.4531 157.969C46.4541 156.315 45.5947 153.894 46.875 150.703C47.6424 149.62 48.6581 148.917 49.9219 148.594C78.203 148.438 106.485 148.281 134.766 148.125C144.638 146.36 154.325 143.86 163.828 140.625C168.991 138.359 173.678 135.39 177.891 131.719C179.141 131.406 180.39 131.406 181.641 131.719C182.959 132.645 184.208 133.661 185.391 134.766C185.781 122.425 186.015 110.081 186.094 97.7344C188.128 94.7513 190.706 94.2042 193.828 96.0938C194.814 97.0509 195.361 98.2228 195.469 99.6094C195.703 113.358 195.781 127.109 195.703 140.859C205.074 143.905 214.605 146.327 224.297 148.125C224.844 148.672 225.39 149.219 225.938 149.766C226.46 155.526 226.694 161.307 226.641 167.109C228.946 190.44 221.289 209.737 203.672 225C199.589 228.615 195.37 232.052 191.016 235.312C183.095 240.735 175.283 240.579 167.578 234.844C165.078 232.813 162.578 230.781 160.078 228.75C118.672 228.594 77.2655 228.437 35.8594 228.281C24.346 227.393 17.0804 221.377 14.0625 210.234C13.75 149.297 13.75 88.3594 14.0625 27.4219C16.5364 17.9167 22.552 12.0573 32.1094 9.84375C41.0143 9.60942 49.9205 9.53128 58.8281 9.60938C58.2656 5.26702 59.828 1.98578 63.5156 -0.234375ZM68.6719 8.67188C92.5781 8.67188 116.484 8.67188 140.391 8.67188C140.391 12.4219 140.391 16.1719 140.391 19.9219C116.484 19.9219 92.5781 19.9219 68.6719 19.9219C68.6719 16.1719 68.6719 12.4219 68.6719 8.67188ZM179.297 143.203C190.664 150.17 203.008 154.545 216.328 156.328C216.406 166.173 216.328 176.017 216.094 185.859C214.069 195.69 209.694 204.284 202.969 211.641C196.79 217.576 190.305 223.123 183.516 228.281C179.945 230.08 176.663 229.612 173.672 226.875C164.043 219.902 155.84 211.543 149.063 201.797C145.718 196.14 143.687 190.046 142.969 183.516C142.734 174.455 142.656 165.392 142.734 156.328C153.71 154.779 164.179 151.576 174.141 146.719C175.943 145.611 177.661 144.439 179.297 143.203Z" fill="#F5F5F5"/>
<path opacity="0.949" fill-rule="evenodd" clip-rule="evenodd" d="M64.453 45.7031C69.2994 45.625 74.143 45.7032 78.9843 45.9375C84.8343 48.651 87.178 53.2607 86.0155 59.7656C96.6243 58.7339 101.312 63.4992 100.078 74.0625C100.984 84.3285 96.2962 89.0943 86.0155 88.3593C86.7309 98.6596 81.9651 103.347 71.7187 102.422C61.1362 103.636 56.3704 98.9484 57.4218 88.3593C46.6965 89.3531 42.009 84.509 43.3593 73.8281C42.2462 63.3787 46.9335 58.6912 57.4218 59.7656C56.0812 53.0709 58.4249 48.3834 64.453 45.7031ZM67.2655 55.5468C70.2341 55.5468 73.2032 55.5468 76.1718 55.5468C76.094 59.144 76.1718 62.7379 76.4062 66.3281C76.7966 67.9687 77.8124 68.9845 79.453 69.375C83.0432 69.6093 86.6371 69.6871 90.2343 69.6093C90.2343 72.5779 90.2343 75.547 90.2343 78.5156C86.6371 78.4378 83.0432 78.5156 79.453 78.75C77.8124 79.1404 76.7966 80.1562 76.4062 81.7968C76.1718 85.387 76.094 88.9809 76.1718 92.5781C73.2032 92.5781 70.2341 92.5781 67.2655 92.5781C69.922 80.5467 65.2344 75.8592 53.203 78.5156C53.203 75.547 53.203 72.5779 53.203 69.6093C57.1607 69.8146 61.0673 69.5803 64.9218 68.9062C66.0046 68.1389 66.7077 67.1231 67.0312 65.8593C67.2655 62.4253 67.3434 58.9879 67.2655 55.5468Z" fill="#F5F5F5"/>
<path opacity="0.945" fill-rule="evenodd" clip-rule="evenodd" d="M117.89 64.4532C133.36 64.3749 148.829 64.4532 164.296 64.6876C167.751 66.6446 168.454 69.3788 166.406 72.8907C165.741 73.3407 165.037 73.7312 164.296 74.0626C148.828 74.3752 133.359 74.3752 117.89 74.0626C115.523 73.3904 114.429 71.828 114.609 69.3751C114.511 66.9015 115.605 65.2608 117.89 64.4532Z" fill="#F5F5F5"/>
<path opacity="0.901" fill-rule="evenodd" clip-rule="evenodd" d="M189.14 76.1719C194.37 76.1742 196.323 78.6741 195 83.6719C193.388 85.8192 191.279 86.5223 188.672 85.7812C186.042 84.2452 185.183 81.9797 186.093 78.9844C186.794 77.6653 187.809 76.7278 189.14 76.1719Z" fill="#F5F5F5"/>
<path opacity="0.942" fill-rule="evenodd" clip-rule="evenodd" d="M117.422 92.5782C132.579 92.4999 147.735 92.5782 162.891 92.8126C165.874 94.8469 166.421 97.4251 164.532 100.547C163.791 101.269 162.932 101.816 161.953 102.188C147.422 102.5 132.891 102.5 118.36 102.188C114.697 100.714 113.681 98.1362 115.313 94.4532C115.968 93.7173 116.671 93.0919 117.422 92.5782Z" fill="#F5F5F5"/>
<path opacity="0.949" fill-rule="evenodd" clip-rule="evenodd" d="M50.8595 120.234C86.9537 120.156 123.047 120.234 159.141 120.469C163.326 121.587 164.498 124.165 162.656 128.203C162.087 128.929 161.384 129.476 160.547 129.844C123.36 130.156 86.1718 130.156 48.9845 129.844C45.66 127.392 45.3475 124.579 48.047 121.406C49.0365 121.01 49.974 120.62 50.8595 120.234Z" fill="#F5F5F5"/>
<path opacity="0.93" fill-rule="evenodd" clip-rule="evenodd" d="M196.64 165.703C201.887 165.71 203.84 168.21 202.5 173.203C194.13 182.665 185.615 191.962 176.953 201.094C175.248 201.984 173.529 201.984 171.796 201.094C167.499 197.109 163.203 193.125 158.906 189.141C156.682 184.64 158.01 181.827 162.89 180.703C163.686 180.89 164.467 181.125 165.234 181.406C168.188 183.891 171.001 186.548 173.671 189.375C173.984 189.688 174.296 189.688 174.609 189.375C181.585 181.073 188.929 173.183 196.64 165.703Z" fill="#F5F5F5"/>
</g>
<defs>
<clipPath id="clip0_623_688">
<rect width="240" height="240" fill="white"/>
</clipPath>
</defs>
</svg>
