<svg width="15" height="15" viewBox="0 0 15 15" fill="none" xmlns="http://www.w3.org/2000/svg">
<g clip-path="url(#clip0_637_3906)">
<path opacity="0.965" fill-rule="evenodd" clip-rule="evenodd" d="M-0.0195312 7.66016C-0.0195312 7.54297 -0.0195312 7.42578 -0.0195312 7.30859C1.0949 5.44727 2.6574 4.10451 4.66797 3.28027C6.30701 2.71348 7.96718 2.64512 9.64844 3.07519C10.0359 3.18808 10.4119 3.32967 10.7764 3.5C11.2988 2.97755 11.8213 2.45508 12.3438 1.93262C12.5391 1.83496 12.7344 1.83496 12.9297 1.93262C13.1221 2.13607 13.1563 2.36556 13.0322 2.62109C9.56055 6.09277 6.08887 9.56445 2.61719 13.0361C2.07909 13.2205 1.83006 13.0301 1.87012 12.4648C1.88965 12.4258 1.90918 12.3867 1.92871 12.3477C2.37834 11.9029 2.82268 11.4537 3.26172 11C1.9001 10.1462 0.806345 9.03295 -0.0195312 7.66016ZM7.45117 3.73437C8.34262 3.74568 9.20198 3.91657 10.0293 4.24707C9.72168 4.55469 9.41406 4.8623 9.10645 5.16992C8.23322 4.61176 7.31037 4.51897 6.33789 4.8916C5.11103 5.51387 4.55925 6.51485 4.68262 7.89453C4.75211 8.33762 4.91324 8.74288 5.16602 9.11035C4.78516 9.49121 4.4043 9.87207 4.02344 10.2529C2.80257 9.58423 1.80648 8.66138 1.03516 7.48437C1.92073 6.12497 3.09262 5.09469 4.55078 4.39355C5.47683 3.97701 6.44362 3.75728 7.45117 3.73437ZM7.45117 5.60937C7.78715 5.62209 8.09966 5.71484 8.38867 5.88769C7.55371 6.72266 6.71875 7.55762 5.88379 8.39258C5.63617 7.96256 5.56782 7.50359 5.67871 7.01562C5.88868 6.3369 6.333 5.89259 7.01172 5.68262C7.16239 5.65807 7.30888 5.63363 7.45117 5.60937Z" fill="#36454F"/>
<path opacity="0.959" fill-rule="evenodd" clip-rule="evenodd" d="M14.982 7.3086C14.982 7.42579 14.982 7.54298 14.982 7.66016C13.7643 9.70271 12.026 11.1041 9.76717 11.8643C8.22258 12.278 6.6796 12.2731 5.13827 11.8496C5.1339 11.8188 5.13876 11.7895 5.15292 11.7617C5.39828 11.5066 5.65219 11.2624 5.91463 11.0293C8.00757 11.474 9.92652 11.0785 11.6715 9.84278C12.5595 9.18427 13.3115 8.39812 13.9273 7.48438C13.3315 6.60041 12.6089 5.83383 11.7594 5.18458C11.9631 4.95143 12.178 4.72684 12.4039 4.51075C12.4332 4.49121 12.4625 4.49121 12.4918 4.51075C13.496 5.29491 14.3261 6.22752 14.982 7.3086Z" fill="#36454F"/>
<path opacity="0.95" fill-rule="evenodd" clip-rule="evenodd" d="M10.1484 6.75391C10.4789 7.88796 10.1957 8.85965 9.29877 9.66895C8.5497 10.2517 7.70985 10.4372 6.77923 10.2256C6.75137 10.2046 6.74651 10.1801 6.76459 10.1523C7.03315 9.88378 7.30169 9.61524 7.57025 9.34668C8.61029 9.20509 9.20112 8.61426 9.34271 7.57422C9.61719 7.30463 9.88576 7.0312 10.1484 6.75391Z" fill="#36454F"/>
</g>
<defs>
<clipPath id="clip0_637_3906">
<rect width="15" height="15" fill="white"/>
</clipPath>
</defs>
</svg>
