<svg width="16" height="16" viewBox="0 0 16 16" fill="none" xmlns="http://www.w3.org/2000/svg">
<g clip-path="url(#clip0_1952_990)">
<path opacity="0.995" d="M14.6097 8.74199C15.1912 8.02796 15.5438 7.21779 15.6699 6.30565V6.30549V6.30336V6.30122V6.29908V6.29695V6.29481V6.29267V6.29054V6.2884V6.28627V6.28413V6.28199V6.27986V6.27772V6.27558V6.27345V6.27131V6.26918V6.26704V6.2649V6.26277V6.26063V6.25849V6.25636V6.25422V6.25209V6.24995V6.24781V6.24568V6.24354V6.2414V6.23927V6.23713V6.235V6.23286V6.23072V6.22859V6.22645V6.22431V6.22218V6.22004V6.21791V6.21577V6.21363V6.2115V6.20936V6.20722V6.20509V6.20295V6.20082V6.19868V6.19654V6.19441V6.19227V6.19013V6.188V6.18586V6.18372V6.18159V6.17945V6.17732V6.17518V6.17304V6.17091V6.16877V6.16664V6.1645V6.16236V6.16023V6.15809V6.15595V6.15382V6.15168V6.14955V6.14741V6.14527V6.14314V6.141V6.13886V6.13673V6.13459V6.13246V6.13032V6.12818V6.12605V6.12391V6.12177V6.11964V6.1175V6.11537V6.11323V6.11109V6.10896V6.10682V6.10468V6.10255V6.10041V6.09828V6.09614V6.094V6.09187V6.08973V6.08759V6.08546V6.08332V6.08119V6.07905V6.07691V6.07478V6.07264V6.0705V6.06837V6.06623V6.0641V6.06196V6.05982V6.05769V6.05555V6.05341V6.05128V6.04914V6.04701V6.04487V6.04273V6.0406V6.03846V6.03632V6.03419V6.03205V6.02992V6.02778V6.02564V6.02351V6.02137V6.01924V6.0171V6.01496V6.01283V6.01069V6.00855V6.00642V6.00428V6.00215V6.00001V5.99787V5.99574V5.9936V5.99146V5.98933V5.98719V5.98506V5.98292V5.98078V5.97865V5.97651V5.97437V5.97224V5.9701V5.96797V5.96583V5.96369V5.96156V5.95942V5.95728V5.95515V5.95301V5.95088V5.94874V5.9466V5.94447V5.94233V5.9402V5.93806V5.93592V5.93379V5.93165V5.92951V5.92738V5.92524V5.92311V5.92097V5.91883V5.9167V5.91456V5.91242V5.91029V5.90815V5.90602V5.90388V5.90174V5.89961V5.89747V5.89534V5.8932V5.89106V5.88893V5.88679V5.88465V5.88252V5.88038V5.87825V5.87611V5.87397V5.87184V5.8697V5.86756V5.86543V5.86329V5.86116V5.85902V5.85688V5.85475V5.85261V5.85047V5.84834V5.8462V5.84407V5.84193V5.83979V5.83766V5.83552V5.83338V5.83125V5.82911V5.82698V5.82484V5.8227V5.82057V5.81843V5.8163V5.81416V5.81202V5.80989V5.80775V5.80561V5.80348V5.80134V5.79921V5.79707V5.79493V5.7928V5.79066V5.78853V5.78639V5.78425V5.78212V5.77998V5.77784V5.77571V5.77357V5.77144V5.7693V5.76716V5.76503V5.76289V5.76075V5.75862V5.75648V5.75435V5.75221V5.75007V5.74794V5.7458V5.74366V5.74153V5.73939V5.73726V5.73512V5.73298V5.73085V5.72871V5.72658V5.72444V5.7223V5.72017V5.71803V5.71589V5.71376V5.71162V5.70949V5.70735V5.70521V5.70308V5.70094V5.6988V5.69667V5.69453V5.6924V5.69026V5.68812V5.68599V5.68385V5.68172V5.67958V5.67744V5.67531V5.67317V5.67103V5.6689V5.66676V5.66463V5.66249V5.66035V5.65822V5.65608V5.65394V5.65181V5.64967V5.64754V5.6454V5.64326V5.64113V5.63899V5.63685V5.63472V5.63258V5.63045V5.62831V5.62617V5.62404V5.6219V5.61976V5.61763V5.61549V5.61336V5.61122V5.60908V5.60695V5.60481V5.60268V5.60054V5.5984V5.59627V5.59413V5.59199V5.58986V5.58772V5.58559V5.58345V5.58131V5.57918V5.57704V5.5749V5.57277V5.57063V5.5685V5.56636V5.56422V5.56209V5.55995V5.55782V5.55568V5.55354V5.55141V5.54927V5.54713V5.545V5.54286V5.54073V5.53859V5.53645V5.53432V5.53218V5.53004V5.52791V5.52577V5.52364V5.5215V5.51936V5.51723V5.51509V5.51295V5.51082V5.50868V5.50655V5.50441V5.50227V5.50014V5.498V5.49586V5.49373V5.49159V5.48946V5.48732V5.48518V5.48305V5.48091V5.47877V5.47664V5.4745V5.47237V5.47023V5.46809V5.46596V5.46382V5.46168V5.45955V5.45741V5.45528V5.45314V5.451V5.44887V5.44673V5.44459V5.44246V5.44032V5.43819V5.43605V5.43391V5.43178V5.42964V5.42751V5.42537V5.42323V5.4211V5.41896V5.41682V5.41469V5.41255V5.41042V5.40828V5.40614V5.40401V5.40187V5.39973V5.3976V5.39546V5.39333V5.39119V5.38905V5.38692V5.38478V5.38264V5.38051V5.37837V5.37624V5.3741V5.37196V5.36983V5.36769V5.36555V5.36342V5.36128V5.35915V5.35701V5.35487V5.35274V5.3506V5.34846V5.34633V5.34419V5.34206V5.33992V5.33778V5.33565V5.33351V5.33137V5.32924V5.3271V5.32497V5.32283V5.32069V5.31856V5.31642V5.31428V5.31215V5.31001V5.30788V5.30574V5.3036V5.30147V5.29933V5.29719V5.29506V5.29292V5.29078V5.28865V5.28651V5.28438V5.28224V5.2801V5.27797V5.27583V5.27369V5.27156V5.26942V5.26729V5.26515V5.26301V5.26088V5.25874V5.2566V5.25447V5.25233V5.2502V5.24806V5.24592V5.24379V5.24165V5.23951V5.23738V5.23524L14.6097 8.74199ZM14.6097 8.74199L14.6095 8.74221L14.5982 8.75353L14.5869 8.76485L14.5755 8.77617L14.5642 8.78749L14.5529 8.79882L14.5416 8.81014L14.5303 8.82146L14.5189 8.83278L14.5076 8.8441L14.4963 8.85543L14.485 8.86675L14.4736 8.87807L14.4623 8.88939L14.451 8.90071L14.4397 8.91203L14.4284 8.92336L14.417 8.93468L14.4057 8.946L14.3944 8.95732L14.3831 8.96865L14.3717 8.97997L14.3604 8.99129L14.3491 9.00261L14.3378 9.01393L14.3265 9.02526L14.3151 9.03658L14.3038 9.0479L14.2925 9.05922L14.2812 9.07054L14.2698 9.08187L14.2585 9.09319L14.2472 9.10451L14.2359 9.11583L14.2246 9.12715L14.2132 9.13847L14.2019 9.1498L14.1906 9.16112L14.1793 9.17244L14.1679 9.18376L14.1566 9.19508L14.1453 9.20641L14.134 9.21773L14.1227 9.22905L14.1113 9.24037L14.1 9.25169L14.0887 9.26302L14.0774 9.27434L14.066 9.28566L14.0547 9.29698L14.0434 9.3083L14.0321 9.31963L14.0208 9.33095L14.0094 9.34227L13.9981 9.35359L13.9868 9.36491L13.9755 9.37624L13.9642 9.38756L13.9528 9.39888L13.9415 9.4102L13.9302 9.42153L13.9189 9.43285L13.9075 9.44417L13.8962 9.45549L13.8849 9.46681L13.8736 9.47814L13.8623 9.48946L13.8509 9.50078L13.8396 9.5121L13.8283 9.52342L13.817 9.53474L13.8056 9.54607L13.7943 9.55739L13.783 9.56871L13.7717 9.58003L13.7604 9.59135L13.749 9.60268L13.7377 9.614L13.7264 9.62532L13.7151 9.63664L13.7037 9.64796L13.6924 9.65929L13.6811 9.67061L13.6698 9.68193L13.6585 9.69325L13.6471 9.70457L13.6358 9.7159L13.6245 9.72722L13.6132 9.73854L13.6018 9.74986L13.5905 9.76118L13.5792 9.77251L13.5679 9.78383L13.5566 9.79515L13.5452 9.80647L13.5339 9.81779L13.5226 9.82912L13.5113 9.84044L13.4999 9.85176L13.4886 9.86308L13.4773 9.8744L13.466 9.88573L13.4547 9.89705L13.4433 9.90837L13.432 9.91969L13.4207 9.93102L13.4094 9.94234L13.3981 9.95366L13.3867 9.96498L13.3754 9.9763L13.3641 9.98763L13.3528 9.99895L13.3414 10.0103L13.3301 10.0216L13.3188 10.0329L13.3075 10.0442L13.2962 10.0556L13.2848 10.0669L13.2735 10.0782L13.2622 10.0895L13.2509 10.1008L13.2395 10.1122L13.2282 10.1235L13.2169 10.1348L13.2056 10.1461L13.1943 10.1575L13.1829 10.1688L13.1716 10.1801L13.1603 10.1914L13.149 10.2027L13.1376 10.2141L13.1263 10.2254L13.115 10.2367L13.1037 10.248L13.0924 10.2594L13.081 10.2707L13.0697 10.282L13.0584 10.2933L13.0471 10.3046L13.0357 10.316L13.0244 10.3273L13.0131 10.3386L13.0018 10.3499L12.9905 10.3613L12.9791 10.3726L12.9678 10.3839L12.9565 10.3952L12.9452 10.4065L12.9338 10.4179L12.9225 10.4292L12.9112 10.4405L12.8999 10.4518L12.8886 10.4632L12.8772 10.4745L12.8659 10.4858L12.8546 10.4971L12.8433 10.5084L12.8319 10.5198L12.8206 10.5311L12.8093 10.5424L12.798 10.5537L12.7867 10.565L12.7753 10.5764L12.764 10.5877L12.7527 10.599L12.7414 10.6103L12.7301 10.6217L12.7187 10.633L12.7074 10.6443L12.6961 10.6556L12.6848 10.6669L12.6734 10.6783L12.6621 10.6896L12.6508 10.7009L12.6395 10.7122L12.6282 10.7236L12.6168 10.7349L12.6055 10.7462L12.5942 10.7575L12.5829 10.7688L12.5715 10.7802L12.5602 10.7915L12.5489 10.8028L12.5376 10.8141L12.5263 10.8255L12.5149 10.8368L12.5036 10.8481L12.4923 10.8594L12.481 10.8707L12.4696 10.8821L12.4583 10.8934L12.447 10.9047L12.4357 10.916L12.4244 10.9274L12.413 10.9387L12.4017 10.95L12.3904 10.9613L12.3791 10.9726L12.3677 10.984L12.3564 10.9953L12.3451 11.0066L12.3338 11.0179L12.3225 11.0293L12.3111 11.0406L12.2998 11.0519L12.2885 11.0632L12.2772 11.0745L12.2658 11.0859L12.2545 11.0972L12.2432 11.1085L12.2319 11.1198L12.2206 11.1312L12.2092 11.1425L12.1979 11.1538L12.1866 11.1651L12.1753 11.1764L12.1639 11.1878L12.1526 11.1991L12.1413 11.2104L12.13 11.2217L12.1187 11.233L12.1073 11.2444L12.096 11.2557L12.0847 11.267L12.0734 11.2783L12.062 11.2897L12.0507 11.301L12.0394 11.3123L12.0281 11.3236L12.0168 11.3349L12.0054 11.3463L11.9941 11.3576L11.9828 11.3689L11.9715 11.3802L11.9602 11.3916L11.9488 11.4029L11.9375 11.4142L11.9262 11.4255L11.9149 11.4368L11.9035 11.4482L11.8922 11.4595L11.8809 11.4708L11.8696 11.4821L11.8583 11.4935L11.8469 11.5048L11.8356 11.5161L11.8243 11.5274L11.813 11.5387L11.8016 11.5501L11.7903 11.5614L11.779 11.5727L11.7677 11.584L11.7564 11.5954L11.745 11.6067L11.7337 11.618L11.7224 11.6293L11.7111 11.6406L11.6997 11.652L11.6884 11.6633L11.6771 11.6746L11.6658 11.6859L11.6545 11.6973L11.6431 11.7086L11.6318 11.7199L11.6205 11.7312L11.6092 11.7425L11.5978 11.7539L11.5865 11.7652L11.5752 11.7765L11.5639 11.7878L11.5526 11.7992L11.5412 11.8105L11.5299 11.8218L11.5186 11.8331L11.5073 11.8444L11.4959 11.8558L11.4846 11.8671L11.4733 11.8784L11.462 11.8897L11.4507 11.9011L11.4393 11.9124L11.428 11.9237L11.4167 11.935L11.4054 11.9463L11.394 11.9577L11.3827 11.969L11.3714 11.9803L11.3601 11.9916L11.3488 12.0029L11.3374 12.0143L11.3261 12.0256L11.3148 12.0369L11.3035 12.0482L11.2922 12.0596L11.2808 12.0709L11.2695 12.0822L11.2582 12.0935L11.2469 12.1048L11.2355 12.1162L11.2242 12.1275L11.2129 12.1388L11.2016 12.1501L11.1903 12.1615L11.1789 12.1728L11.1676 12.1841L11.1563 12.1954L11.145 12.2067L11.1336 12.2181L11.1223 12.2294L11.111 12.2407L11.0997 12.252L11.0884 12.2634L11.077 12.2747L11.0657 12.286L11.0544 12.2973L11.0431 12.3086L11.0317 12.32L11.0204 12.3313L11.0091 12.3426L10.9978 12.3539L10.9865 12.3653L10.9751 12.3766L10.9638 12.3879L10.9525 12.3992L10.9412 12.4105L10.9298 12.4219L10.9185 12.4332L10.9072 12.4445L10.8959 12.4558L10.8846 12.4672L10.8732 12.4785L10.8619 12.4898L10.8506 12.5011L10.8393 12.5124L10.8279 12.5238L10.8166 12.5351L10.8053 12.5464L10.794 12.5577L10.7827 12.5691L10.7713 12.5804L10.76 12.5917L10.7487 12.603L10.7374 12.6143L10.726 12.6257L10.7147 12.637L10.7034 12.6483L10.6921 12.6596L10.6808 12.6709L10.6694 12.6823L10.6581 12.6936L10.6468 12.7049L10.6355 12.7162L10.6242 12.7276L10.6128 12.7389L10.6015 12.7502L10.5902 12.7615L10.5789 12.7728L10.5675 12.7842L10.5562 12.7955L10.5449 12.8068L10.5336 12.8181L10.5223 12.8295L10.5109 12.8408L10.4996 12.8521L10.4883 12.8634L10.477 12.8747L10.4656 12.8861L10.4543 12.8974L10.443 12.9087L10.4317 12.92L10.4204 12.9314L10.409 12.9427L10.3977 12.954L10.3864 12.9653L10.3751 12.9766L10.3637 12.988L10.3524 12.9993L10.3411 13.0106L10.3298 13.0219L10.3185 13.0333L10.3071 13.0446L10.2958 13.0559L10.2845 13.0672L10.2732 13.0785L10.2618 13.0899L10.2505 13.1012L10.2392 13.1125L10.2279 13.1238L10.2166 13.1352L10.2052 13.1465L10.1939 13.1578L10.1826 13.1691L10.1713 13.1804L10.1599 13.1918L10.1486 13.2031L10.1373 13.2144L10.126 13.2257L10.1147 13.2371L10.1033 13.2484L10.092 13.2597L10.0807 13.271L10.0694 13.2823L10.058 13.2937L10.0467 13.305L10.0354 13.3163L10.0241 13.3276L10.0128 13.3389L10.0014 13.3503L9.99012 13.3616L9.97879 13.3729L9.96747 13.3842L9.95615 13.3956L9.94483 13.4069L9.93351 13.4182L9.92218 13.4295L9.91086 13.4408L9.89954 13.4522L9.88822 13.4635L9.8769 13.4748L9.86557 13.4861L9.85425 13.4975L9.84293 13.5088L9.83161 13.5201L9.82029 13.5314L9.80896 13.5427L9.79764 13.5541L9.78632 13.5654L9.775 13.5767L9.76368 13.588L9.75235 13.5994L9.74103 13.6107L9.72971 13.622L9.71839 13.6333L9.70707 13.6446L9.69574 13.656L9.68442 13.6673L9.6731 13.6786L9.66178 13.6899L9.65046 13.7013L9.63913 13.7126L9.62781 13.7239L9.61649 13.7352L9.60517 13.7465L9.59385 13.7579L9.58252 13.7692L9.5712 13.7805L9.55988 13.7918L9.54856 13.8032L9.53724 13.8145L9.52591 13.8258L9.51459 13.8371L9.50327 13.8484L9.49195 13.8598L9.48063 13.8711L9.4693 13.8824L9.45798 13.8937L9.44666 13.9051L9.43534 13.9164L9.42402 13.9277L9.41269 13.939L9.40137 13.9503L9.39005 13.9617L9.37873 13.973L9.36741 13.9843L9.35608 13.9956L9.34476 14.0069L9.33344 14.0183L9.32212 14.0296L9.3108 14.0409L9.29947 14.0522L9.28815 14.0636L9.27683 14.0749L9.26551 14.0862L9.25419 14.0975L9.24286 14.1088L9.23154 14.1202L9.22022 14.1315L9.2089 14.1428L9.19758 14.1541L9.18625 14.1655L9.17493 14.1768L9.16361 14.1881L9.15229 14.1994L9.14097 14.2107L9.12964 14.2221L9.11832 14.2334L9.107 14.2447L9.09568 14.256L9.08436 14.2674L9.07303 14.2787L9.06171 14.29L9.05039 14.3013L9.03907 14.3126L9.02775 14.324L9.01642 14.3353L9.0051 14.3466L8.99378 14.3579L8.98246 14.3693L8.97114 14.3806L8.95982 14.3919L8.94849 14.4032L8.93717 14.4145L8.92585 14.4259L8.91453 14.4372L8.9032 14.4485L8.89188 14.4598L8.88056 14.4711L8.86924 14.4825L8.85792 14.4938L8.84707 14.5046C8.53618 14.7041 8.24452 14.7905 7.96746 14.7865C7.68925 14.7824 7.39795 14.6868 7.08958 14.4764L7.08712 14.474L7.07586 14.4627L7.0646 14.4515L7.05334 14.4402L7.04208 14.4289L7.03082 14.4177L7.01956 14.4064L7.00829 14.3952L6.99703 14.3839L6.98577 14.3726L6.97451 14.3614L6.96325 14.3501L6.95199 14.3389L6.94073 14.3276L6.92947 14.3163L6.91821 14.3051L6.90695 14.2938L6.89568 14.2825L6.88442 14.2713L6.87316 14.26L6.8619 14.2488L6.85064 14.2375L6.83938 14.2262L6.82812 14.215L6.81686 14.2037L6.8056 14.1925L6.79434 14.1812L6.78307 14.1699L6.77181 14.1587L6.76055 14.1474L6.74929 14.1362L6.73803 14.1249L6.72677 14.1136L6.71551 14.1024L6.70425 14.0911L6.69299 14.0799L6.68173 14.0686L6.67046 14.0573L6.6592 14.0461L6.64794 14.0348L6.63668 14.0235L6.62542 14.0123L6.61416 14.001L6.6029 13.9898L6.59164 13.9785L6.58038 13.9672L6.56912 13.956L6.55785 13.9447L6.54659 13.9335L6.53533 13.9222L6.52407 13.9109L6.51281 13.8997L6.50155 13.8884L6.49029 13.8772L6.47903 13.8659L6.46777 13.8546L6.45651 13.8434L6.44524 13.8321L6.43398 13.8208L6.42272 13.8096L6.41146 13.7983L6.4002 13.7871L6.38894 13.7758L6.37768 13.7645L6.36642 13.7533L6.35516 13.742L6.3439 13.7308L6.33263 13.7195L6.32137 13.7082L6.31011 13.697L6.29885 13.6857L6.28759 13.6745L6.27633 13.6632L6.26507 13.6519L6.25381 13.6407L6.24255 13.6294L6.23129 13.6182L6.22003 13.6069L6.20876 13.5956L6.1975 13.5844L6.18624 13.5731L6.17498 13.5618L6.16372 13.5506L6.15246 13.5393L6.1412 13.5281L6.12994 13.5168L6.11868 13.5055L6.10742 13.4943L6.09615 13.483L6.08489 13.4718L6.07363 13.4605L6.06237 13.4492L6.05111 13.438L6.03985 13.4267L6.02859 13.4155L6.01733 13.4042L6.00607 13.3929L5.99481 13.3817L5.98354 13.3704L5.97228 13.3591L5.96102 13.3479L5.94976 13.3366L5.9385 13.3254L5.92724 13.3141L5.91598 13.3028L5.90472 13.2916L5.89346 13.2803L5.8822 13.2691L5.87093 13.2578L5.85967 13.2465L5.84841 13.2353L5.83715 13.224L5.82589 13.2128L5.81463 13.2015L5.80337 13.1902L5.79211 13.179L5.78085 13.1677L5.76959 13.1565L5.75832 13.1452L5.74706 13.1339L5.7358 13.1227L5.72454 13.1114L5.71328 13.1001L5.70202 13.0889L5.69076 13.0776L5.6795 13.0664L5.66824 13.0551L5.65698 13.0438L5.64571 13.0326L5.63445 13.0213L5.62319 13.0101L5.61193 12.9988L5.60067 12.9875L5.58941 12.9763L5.57815 12.965L5.56689 12.9538L5.55563 12.9425L5.54437 12.9312L5.5331 12.92L5.52184 12.9087L5.51058 12.8974L5.49932 12.8862L5.48806 12.8749L5.4768 12.8637L5.46554 12.8524L5.45428 12.8411L5.44302 12.8299L5.43176 12.8186L5.4205 12.8074L5.40923 12.7961L5.39797 12.7848L5.38671 12.7736L5.37545 12.7623L5.36419 12.7511L5.35293 12.7398L5.34167 12.7285L5.33041 12.7173L5.31915 12.706L5.30789 12.6948L5.29662 12.6835L5.28536 12.6722L5.2741 12.661L5.26284 12.6497L5.25158 12.6384L5.24032 12.6272L5.22906 12.6159L5.2178 12.6047L5.20654 12.5934L5.19528 12.5821L5.18401 12.5709L5.17275 12.5596L5.16149 12.5484L5.15023 12.5371L5.13897 12.5258L5.12771 12.5146L5.11645 12.5033L5.10519 12.4921L5.09393 12.4808L5.08267 12.4695L5.0714 12.4583L5.06014 12.447L5.04888 12.4357L5.03762 12.4245L5.02636 12.4132L5.0151 12.402L5.00384 12.3907L4.99258 12.3794L4.98132 12.3682L4.97006 12.3569L4.95879 12.3457L4.94753 12.3344L4.93627 12.3231L4.92501 12.3119L4.91375 12.3006L4.90249 12.2894L4.89123 12.2781L4.87997 12.2668L4.86871 12.2556L4.85745 12.2443L4.84618 12.2331L4.83492 12.2218L4.82366 12.2105L4.8124 12.1993L4.80114 12.188L4.78988 12.1767L4.77862 12.1655L4.76736 12.1542L4.7561 12.143L4.74484 12.1317L4.73357 12.1204L4.72231 12.1092L4.71105 12.0979L4.69979 12.0867L4.68853 12.0754L4.67727 12.0641L4.66601 12.0529L4.65475 12.0416L4.64349 12.0304L4.63223 12.0191L4.62097 12.0078L4.6097 11.9966L4.59844 11.9853L4.58718 11.974L4.57592 11.9628L4.56466 11.9515L4.5534 11.9403L4.54214 11.929L4.53088 11.9177L4.51962 11.9065L4.50836 11.8952L4.49709 11.884L4.48583 11.8727L4.47457 11.8614L4.46331 11.8502L4.45205 11.8389L4.44079 11.8277L4.42953 11.8164L4.41827 11.8051L4.40701 11.7939L4.39575 11.7826L4.38448 11.7713L4.37322 11.7601L4.36196 11.7488L4.3507 11.7376L4.33944 11.7263L4.32818 11.715L4.31692 11.7038L4.30566 11.6925L4.2944 11.6813L4.28314 11.67L4.27187 11.6587L4.26061 11.6475L4.24935 11.6362L4.23809 11.625L4.22683 11.6137L4.21557 11.6024L4.20431 11.5912L4.19305 11.5799L4.18179 11.5687L4.17053 11.5574L4.15926 11.5461L4.148 11.5349L4.13674 11.5236L4.12548 11.5123L4.11422 11.5011L4.10296 11.4898L4.0917 11.4786L4.08044 11.4673L4.06918 11.456L4.05792 11.4448L4.04665 11.4335L4.03539 11.4223L4.02413 11.411L4.01287 11.3997L4.00161 11.3885L3.99035 11.3772L3.97909 11.366L3.96783 11.3547L3.95657 11.3434L3.94531 11.3322L3.93404 11.3209L3.92278 11.3096L3.91152 11.2984L3.90026 11.2871L3.889 11.2759L3.87774 11.2646L3.86648 11.2533L3.85522 11.2421L3.84396 11.2308L3.8327 11.2196L3.82143 11.2083L3.81017 11.197L3.79891 11.1858L3.78765 11.1745L3.77639 11.1633L3.76513 11.152L3.75387 11.1407L3.74261 11.1295L3.73135 11.1182L3.72009 11.107L3.70882 11.0957L3.69756 11.0844L3.6863 11.0732L3.67504 11.0619L3.66378 11.0506L3.65252 11.0394L3.64126 11.0281L3.63 11.0169L3.61874 11.0056L3.60748 10.9943L3.59622 10.9831L3.58495 10.9718L3.57369 10.9606L3.56243 10.9493L3.55117 10.938L3.53991 10.9268L3.52865 10.9155L3.51739 10.9043L3.50613 10.893L3.49487 10.8817L3.48361 10.8705L3.47234 10.8592L3.46108 10.8479L3.44982 10.8367L3.43856 10.8254L3.4273 10.8142L3.41604 10.8029L3.40478 10.7916L3.39352 10.7804L3.38226 10.7691L3.371 10.7579L3.35973 10.7466L3.34847 10.7353L3.33721 10.7241L3.32595 10.7128L3.31469 10.7016L3.30343 10.6903L3.29217 10.679L3.28091 10.6678L3.26965 10.6565L3.25839 10.6453L3.24712 10.634L3.23586 10.6227L3.2246 10.6115L3.21334 10.6002L3.20208 10.5889L3.19082 10.5777L3.17956 10.5664L3.1683 10.5552L3.15704 10.5439L3.14578 10.5326L3.13451 10.5214L3.12325 10.5101L3.11199 10.4989L3.10073 10.4876L3.08947 10.4763L3.07821 10.4651L3.06695 10.4538L3.05569 10.4426L3.04443 10.4313L3.03317 10.42L3.0219 10.4088L3.01064 10.3975L2.99938 10.3862L2.98812 10.375L2.97686 10.3637L2.9656 10.3525L2.95434 10.3412L2.94308 10.3299L2.93182 10.3187L2.92056 10.3074L2.90929 10.2962L2.89803 10.2849L2.88677 10.2736L2.87551 10.2624L2.86425 10.2511L2.85299 10.2399L2.84173 10.2286L2.83047 10.2173L2.81921 10.2061L2.80795 10.1948L2.79668 10.1836L2.78542 10.1723L2.77416 10.161L2.7629 10.1498L2.75164 10.1385L2.74038 10.1272L2.72912 10.116L2.71786 10.1047L2.7066 10.0935L2.69534 10.0822L2.68408 10.0709L2.67281 10.0597L2.66155 10.0484L2.65029 10.0372L2.63903 10.0259L2.62777 10.0146L2.61651 10.0034L2.60525 9.99211L2.59399 9.98085L2.58273 9.96959L2.57147 9.95833L2.5602 9.94707L2.54894 9.93581L2.53768 9.92455L2.52642 9.91329L2.51516 9.90203L2.5039 9.89077L2.49264 9.8795L2.48138 9.86824L2.47012 9.85698L2.45886 9.84572L2.44759 9.83446L2.43633 9.8232L2.42507 9.81194L2.41381 9.80068L2.40255 9.78942L2.39129 9.77816L2.38003 9.76689L2.36877 9.75563L2.35751 9.74437L2.34625 9.73311L2.33498 9.72185L2.32372 9.71059L2.31246 9.69933L2.3012 9.68807L2.28994 9.67681L2.27868 9.66555L2.26742 9.65428L2.25616 9.64302L2.2449 9.63176L2.23364 9.6205L2.22237 9.60924L2.21111 9.59798L2.19985 9.58672L2.18859 9.57546L2.17733 9.5642L2.16607 9.55294L2.15481 9.54167L2.14355 9.53041L2.13229 9.51915L2.12103 9.50789L2.10976 9.49663L2.0985 9.48537L2.08724 9.47411L2.07598 9.46285L2.06472 9.45159L2.05346 9.44033L2.0422 9.42906L2.03094 9.4178L2.01968 9.40654L2.00842 9.39528L1.99715 9.38402L1.98589 9.37276L1.97463 9.3615L1.96337 9.35024L1.95211 9.33898L1.94085 9.32772L1.92959 9.31645L1.91833 9.30519L1.90707 9.29393L1.89581 9.28267L1.88455 9.27141L1.87328 9.26015L1.86202 9.24889L1.85076 9.23763L1.8395 9.22637L1.82824 9.21511L1.81698 9.20385L1.80572 9.19258L1.79446 9.18132L1.7832 9.17006L1.77194 9.1588L1.76067 9.14754L1.74941 9.13628L1.73815 9.12502L1.72689 9.11376L1.71563 9.1025L1.70437 9.09124L1.69311 9.07997L1.68185 9.06871L1.67059 9.05745L1.65933 9.04619L1.64806 9.03493L1.6368 9.02367L1.62554 9.01241L1.61428 9.00115L1.60302 8.98989L1.59176 8.97863L1.5805 8.96736L1.56924 8.9561L1.55798 8.94484L1.54672 8.93358L1.53545 8.92232L1.52419 8.91106L1.51293 8.8998L1.50167 8.88854L1.49041 8.87728L1.47915 8.86602L1.46789 8.85475L1.45663 8.84349L1.44537 8.83223L1.43411 8.82097L1.42284 8.80971L1.41158 8.79845L1.40032 8.78719L1.38906 8.77593L1.3778 8.76467L1.36654 8.75341L1.35528 8.74214L1.35513 8.742C0.773659 8.02797 0.421092 7.21779 0.294922 6.30565V6.30488V6.30269V6.30049V6.29829V6.29609V6.2939V6.2917V6.2895V6.2873V6.28511V6.28291V6.28071V6.27852V6.27632V6.27412V6.27192V6.26973V6.26753V6.26533V6.26313V6.26094V6.25874V6.25654V6.25435V6.25215V6.24995V6.24775V6.24556V6.24336V6.24116V6.23896V6.23677V6.23457V6.23237V6.23018V6.22798V6.22578V6.22358V6.22139V6.21919V6.21699V6.21479V6.2126V6.2104V6.2082V6.20601V6.20381V6.20161V6.19941V6.19722V6.19502V6.19282V6.19062V6.18843V6.18623V6.18403V6.18184V6.17964V6.17744V6.17524V6.17305V6.17085V6.16865V6.16645V6.16426V6.16206V6.15986V6.15767V6.15547V6.15327V6.15107V6.14888V6.14668V6.14448V6.14228V6.14009V6.13789V6.13569V6.1335V6.1313V6.1291V6.1269V6.12471V6.12251V6.12031V6.11811V6.11592V6.11372V6.11152V6.10933V6.10713V6.10493V6.10273V6.10054V6.09834V6.09614V6.09395V6.09175V6.08955V6.08735V6.08516V6.08296V6.08076V6.07856V6.07637V6.07417V6.07197V6.06978V6.06758V6.06538V6.06318V6.06099V6.05879V6.05659V6.05439V6.0522V6.05V6.0478V6.04561V6.04341V6.04121V6.03901V6.03682V6.03462V6.03242V6.03022V6.02803V6.02583V6.02363V6.02144V6.01924V6.01704V6.01484V6.01265V6.01045V6.00825V6.00605V6.00386V6.00166V5.99946V5.99727V5.99507V5.99287V5.99067V5.98848V5.98628V5.98408V5.98188V5.97969V5.97749V5.97529V5.9731V5.9709V5.9687V5.9665V5.96431V5.96211V5.95991V5.95771V5.95552V5.95332V5.95112V5.94893V5.94673V5.94453V5.94233V5.94014V5.93794V5.93574V5.93354V5.93135V5.92915V5.92695V5.92476V5.92256V5.92036V5.91816V5.91597V5.91377V5.91157V5.90937V5.90718V5.90498V5.90278V5.90059V5.89839V5.89619V5.89399V5.8918V5.8896V5.8874V5.8852V5.88301V5.88081V5.87861V5.87642V5.87422V5.87202V5.86982V5.86763V5.86543V5.86323V5.86103V5.85884V5.85664V5.85444V5.85225V5.85005V5.84785V5.84565V5.84346V5.84126V5.83906V5.83686V5.83467V5.83247V5.83027V5.82808V5.82588V5.82368V5.82148V5.81929V5.81709V5.81489V5.8127V5.8105V5.8083V5.8061V5.80391V5.80171V5.79951V5.79731V5.79512V5.79292V5.79072V5.78853V5.78633V5.78413V5.78193V5.77974V5.77754V5.77534V5.77314V5.77095V5.76875V5.76655V5.76436V5.76216V5.75996V5.75776V5.75557V5.75337V5.75117V5.74897V5.74678V5.74458V5.74238V5.74019V5.73799V5.73579V5.73359V5.7314V5.7292V5.727V5.7248V5.72261V5.72041V5.71821V5.71602V5.71382V5.71162V5.70942V5.70723V5.70503V5.70283V5.70063V5.69844V5.69624V5.69404V5.69185V5.68965V5.68745V5.68525V5.68306V5.68086V5.67866V5.67646V5.67427V5.67207V5.66987V5.66768V5.66548V5.66328V5.66108V5.65889V5.65669V5.65449V5.65229V5.6501V5.6479V5.6457V5.64351V5.64131V5.63911V5.63691V5.63472V5.63252V5.63032V5.62812V5.62593V5.62373V5.62153V5.61934V5.61714V5.61494V5.61274V5.61055V5.60835V5.60615V5.60395V5.60176V5.59956V5.59736V5.59517V5.59297V5.59077V5.58857V5.58638V5.58418V5.58198V5.57978V5.57759V5.57539V5.57319V5.571V5.5688V5.5666V5.5644V5.56221V5.56001V5.55781V5.55561V5.55342V5.55122V5.54902V5.54683V5.54463V5.54243V5.54023V5.53804V5.53584V5.53364V5.53145V5.52925V5.52705V5.52485V5.52266V5.52046V5.51826V5.51606V5.51387V5.51167V5.50947V5.50728V5.50508V5.50288V5.50068V5.49849V5.49629V5.49409V5.49189V5.4897V5.4875V5.4853V5.48311V5.48091V5.47871V5.47651V5.47432V5.47212V5.46992V5.46772V5.46553V5.46333V5.46113V5.45894V5.45674V5.45454V5.45234V5.45015V5.44795V5.44575V5.44355V5.44136V5.43916V5.43696V5.43477V5.43257V5.43037V5.42817V5.42598V5.42378V5.42158V5.41938V5.41719V5.41499V5.41279V5.4106V5.4084V5.4062V5.404V5.40181V5.39961V5.39741V5.39521V5.39302V5.39082V5.38862V5.38643V5.38423V5.38203V5.37983V5.37764V5.37544V5.37324V5.37104V5.36885V5.36665V5.36445V5.36226V5.36006V5.35786V5.35566V5.35347V5.35127V5.34907V5.34687V5.34468V5.34248V5.34028V5.33809V5.33589V5.33369V5.33149V5.3293V5.3271V5.3249V5.3227V5.32051V5.31831V5.31611V5.31392V5.31172V5.30952V5.30732V5.30513V5.30293V5.30073V5.29853V5.29634V5.29414V5.29194V5.28975V5.28755V5.28535V5.28315V5.28096V5.27876V5.27656V5.27436V5.27217V5.26997V5.26777V5.26558V5.26338V5.26118V5.25898V5.25679V5.25459V5.25239V5.2502V5.248V5.2458V5.2436V5.24141V5.23921V5.23701V5.23481V5.23262V5.23042V5.22822V5.22603V5.22578L14.6097 8.74199ZM7.79357 2.23209L7.98242 2.37533L8.17127 2.23209L7.98242 1.98311L7.79357 2.23209Z" stroke="#380835" stroke-width="0.625"/>
</g>
<defs>
<clipPath id="clip0_1952_990">
<rect width="16" height="16" fill="white" transform="translate(-0.00195312)"/>
</clipPath>
</defs>
</svg>
