<svg width="240" height="240" viewBox="0 0 240 240" fill="none" xmlns="http://www.w3.org/2000/svg">
<path opacity="0.992" fill-rule="evenodd" clip-rule="evenodd" d="M117.423 9.60892C110.077 12.9 108.124 18.2125 111.564 25.5464C113.046 27.4259 114.842 28.8321 116.955 29.7652C110.215 29.582 103.496 29.8164 96.7983 30.4683C92.3995 32.1547 90.134 35.3578 90.0014 40.0777C89.8453 54.2963 89.6887 68.5153 89.5326 82.7339C88.5169 86.2495 86.2514 88.515 82.7358 89.5308C68.3606 89.6869 53.9859 89.8435 39.6108 89.9995C35.0967 90.2953 32.0498 92.5608 30.4701 96.7964C29.7151 111.001 29.5588 125.22 30.0014 139.453C30.4857 145.406 33.6888 148.765 39.6108 149.531C54.142 149.687 68.6733 149.843 83.2045 150C86.2514 151.171 88.3608 153.281 89.5326 156.328C89.767 167.42 89.8453 178.514 89.767 189.609C89.6892 193.83 89.767 198.049 90.0014 202.265C91.1733 205.937 93.5953 208.359 97.267 209.531C103.828 209.765 110.39 209.843 116.955 209.765C109.882 213.247 108.085 218.559 111.564 225.703C113.259 227.521 115.212 228.928 117.423 229.921C110.078 230 102.734 229.921 95.392 229.687C81.2358 226.781 72.7204 218.265 69.8451 204.14C69.6108 192.735 69.5325 181.329 69.6108 169.921C58.2033 170 46.7972 169.921 35.392 169.687C22.4184 167.182 14.059 159.603 10.3139 146.953C9.78504 137.907 9.55067 128.844 9.61076 119.765C9.55067 110.686 9.78504 101.624 10.3139 92.5777C14.0737 79.9111 22.433 72.3328 35.392 69.8433C46.7972 69.6089 58.2033 69.5306 69.6108 69.6089C69.5325 58.2014 69.6108 46.7954 69.8451 35.3902C72.3347 22.4312 79.9129 14.0718 92.5795 10.312C100.841 9.64919 109.122 9.41481 117.423 9.60892Z" fill="#F5F5F5"/>
<path fill-rule="evenodd" clip-rule="evenodd" d="M117.421 9.61071C127.284 9.40952 137.128 9.6439 146.953 10.3138C159.606 14.0616 167.184 22.421 169.687 35.392C169.921 46.7972 170 58.2032 169.921 69.6107C181.329 69.5324 192.735 69.6107 204.14 69.8451C217.087 72.3215 225.446 79.8998 229.218 92.5795C229.747 101.625 229.981 110.688 229.921 119.767C229.981 128.846 229.747 137.909 229.218 146.954C225.473 159.605 217.114 167.183 204.14 169.689C192.735 169.923 181.329 170.001 169.921 169.923C170 181.331 169.921 192.737 169.687 204.142C167.16 217.295 159.426 225.654 146.484 229.22C136.818 229.896 127.13 230.13 117.421 229.923C115.21 228.929 113.257 227.523 111.562 225.704C108.083 218.561 109.881 213.249 116.953 209.767C124.923 209.845 132.892 209.767 140.859 209.533C145.937 208.829 148.828 205.939 149.531 200.861C149.687 186.329 149.843 171.798 150 157.267C151.171 153.595 153.593 151.173 157.265 150.001C171.796 149.845 186.328 149.689 200.859 149.533C205.937 148.829 208.828 145.939 209.531 140.861C209.843 126.642 209.843 112.423 209.531 98.2045C208.672 93.5952 205.937 90.8606 201.328 90.0013C194.142 89.767 186.954 89.6887 179.765 89.767C172.107 89.8452 164.451 89.767 156.796 89.5326C153.481 88.5613 151.215 86.452 150 83.2045C149.843 68.8293 149.687 54.4546 149.531 40.0795C149.047 34.1265 145.844 30.7671 139.921 30.0013C132.267 29.767 124.611 29.6889 116.953 29.767C114.84 28.8339 113.044 27.4277 111.562 25.5482C108.122 18.2143 110.076 12.9018 117.421 9.61071Z" fill="#F5F5F5"/>
</svg>
