<svg width="12" height="11" viewBox="0 0 12 11" fill="none" xmlns="http://www.w3.org/2000/svg">
<path opacity="0.964" fill-rule="evenodd" clip-rule="evenodd" d="M11 8.41326C11 8.51742 11 8.6216 11 8.72576C10.8388 9.14168 10.5393 9.29467 10.1016 9.18475C9.55111 8.99258 9.00098 8.80053 8.45117 8.60858C7.8991 8.87274 7.31643 9.01922 6.70312 9.04803C5.87217 10.0751 4.80445 10.4657 3.5 10.2199C3.28932 10.167 3.08424 10.0987 2.88477 10.0148C2.50923 10.1378 2.13488 10.2648 1.76172 10.3957C1.38934 10.4936 1.13544 10.3667 1 10.0148C1 9.91717 1 9.81951 1 9.72186C1.14582 9.33328 1.28254 8.93942 1.41016 8.54022C0.91224 7.33172 1.06523 6.21518 1.86914 5.19061C2.01368 5.03299 2.16993 4.88975 2.33789 4.76092C2.41823 3.17889 3.12461 1.97121 4.45703 1.13787C5.54396 0.539675 6.68328 0.415977 7.875 0.76678C9.27779 1.25812 10.2055 2.21189 10.6582 3.62811C10.9414 4.67315 10.8535 5.68551 10.3945 6.66522C10.599 7.2493 10.8008 7.83197 11 8.41326ZM6.37109 1.1867C7.85385 1.16769 8.97689 1.78618 9.74023 3.04217C10.2492 3.97906 10.3403 4.95563 10.0137 5.97186C9.92014 6.19141 9.83225 6.41278 9.75 6.63592C9.95111 7.2816 10.166 7.92287 10.3945 8.55975C10.3768 8.60504 10.3442 8.61807 10.2969 8.59881C9.67244 8.37547 9.04418 8.16389 8.41211 7.96405C8.15842 8.07295 7.90125 8.17387 7.64062 8.26678C6.12455 8.6511 4.84525 8.26373 3.80273 7.10467C2.94168 5.98766 2.75288 4.76369 3.23633 3.4328C3.75299 2.2653 4.63514 1.53939 5.88281 1.25506C6.0483 1.23095 6.21105 1.20816 6.37109 1.1867ZM2.40625 5.52264C2.76052 7.17744 3.73709 8.28748 5.33594 8.85272C5.52838 8.91059 5.72369 8.95617 5.92188 8.98944C5.26408 9.5934 4.49586 9.80172 3.61719 9.61444C3.40885 9.55256 3.20703 9.47444 3.01172 9.38006C2.94662 9.36703 2.88151 9.36703 2.81641 9.38006C2.4254 9.52237 2.03478 9.64932 1.64453 9.76092C1.79712 9.34873 1.93384 8.93207 2.05469 8.51092C2.05387 8.45703 2.0441 8.40496 2.02539 8.35467C1.55136 7.32729 1.67831 6.38328 2.40625 5.52264Z" fill="#1E1E1E" stroke="#1E1E1E" stroke-width="0.3"/>
<path opacity="0.978" fill-rule="evenodd" clip-rule="evenodd" d="M4.73034 3.21607C5.96734 3.21281 7.20433 3.21607 8.44128 3.22583C8.65183 3.3182 8.71368 3.4712 8.62683 3.68482C8.58265 3.74206 8.52732 3.78437 8.46081 3.81177C7.21081 3.8248 5.96081 3.8248 4.71081 3.81177C4.50985 3.70128 4.46103 3.54179 4.56433 3.33325C4.61583 3.28656 4.67116 3.24749 4.73034 3.21607Z" fill="#1E1E1E" stroke="#1E1E1E" stroke-width="0.3"/>
<path opacity="0.977" fill-rule="evenodd" clip-rule="evenodd" d="M4.71105 4.44654C5.96107 4.44327 7.21107 4.44654 8.46105 4.4563C8.66935 4.56667 8.71818 4.72616 8.60753 4.93482C8.56652 4.99277 8.51117 5.02857 8.44152 5.04224C7.20455 5.05527 5.96755 5.05527 4.73058 5.04224C4.584 4.9998 4.5124 4.90214 4.51574 4.74927C4.5148 4.60441 4.57992 4.50351 4.71105 4.44654Z" fill="#1E1E1E" stroke="#1E1E1E" stroke-width="0.3"/>
<path opacity="0.948" fill-rule="evenodd" clip-rule="evenodd" d="M4.78898 5.65747C5.53771 5.65421 6.2864 5.65747 7.03507 5.66724C7.20435 5.69658 7.2955 5.79749 7.30851 5.96997C7.29698 6.13433 7.21235 6.23525 7.0546 6.27271C6.28638 6.28574 5.51814 6.28574 4.74991 6.27271C4.5315 6.19122 4.46314 6.03824 4.54484 5.81372C4.60521 5.72361 4.68657 5.67154 4.78898 5.65747Z" fill="#1E1E1E" stroke="#1E1E1E" stroke-width="0.3"/>
</svg>
