<svg width="24" height="24" viewBox="0 0 24 24" fill="none" xmlns="http://www.w3.org/2000/svg">
<g clip-path="url(#clip0_640_8031)">
<path opacity="0.976" fill-rule="evenodd" clip-rule="evenodd" d="M11.3672 -0.0234375C11.7735 -0.0234375 12.1797 -0.0234375 12.5859 -0.0234375C14.3055 0.312866 15.4539 1.31287 16.0313 2.97656C16.1004 3.20652 16.1473 3.44089 16.1719 3.67969C16.2032 6.77344 16.2032 9.86719 16.1719 12.9609C15.9189 14.6156 15.0205 15.764 13.4766 16.4062C11.6241 16.992 10.0382 16.578 8.71876 15.1641C8.19718 14.522 7.88467 13.7876 7.78126 12.9609C7.75 9.86719 7.75 6.77344 7.78126 3.67969C8.02689 2.09043 8.87846 0.957623 10.3359 0.28125C10.6767 0.149423 11.0205 0.0478608 11.3672 -0.0234375ZM11.6484 1.75781C12.8154 1.70016 13.667 2.18453 14.2031 3.21094C14.2876 3.43943 14.3501 3.6738 14.3906 3.91406C14.4365 6.94678 14.4209 9.978 14.3438 13.0078C13.9782 14.162 13.1891 14.787 11.9766 14.8828C10.6271 14.7443 9.82243 14.0099 9.56251 12.6797C9.53125 9.75783 9.53125 6.83592 9.56251 3.91406C9.77687 2.72323 10.4722 2.00447 11.6484 1.75781Z" fill="#AFB5B9"/>
<path opacity="0.971" fill-rule="evenodd" clip-rule="evenodd" d="M14.5541 23.9761C12.8353 23.9761 11.1166 23.9761 9.39785 23.9761C8.74474 23.6253 8.61194 23.1253 8.99941 22.4761C9.13361 22.3348 9.29768 22.2488 9.4916 22.2183C10.0226 22.1949 10.5539 22.187 11.0853 22.1949C11.101 21.4754 11.0853 20.7567 11.0385 20.0386C7.93239 19.5027 5.84646 17.7527 4.78066 14.7886C4.48022 13.7276 4.38647 12.6495 4.49941 11.5542C4.77832 11.0049 5.20802 10.8408 5.78847 11.0621C5.97072 11.1662 6.10352 11.3146 6.18691 11.5074C6.24532 12.0516 6.27658 12.5984 6.28066 13.148C6.56524 15.2285 7.63553 16.752 9.4916 17.7183C11.6877 18.6613 13.7346 18.4113 15.6322 16.9683C17.1908 15.5607 17.8861 13.8029 17.7182 11.6949C17.8998 11.092 18.2982 10.8655 18.9135 11.0152C19.3997 11.2689 19.6029 11.6751 19.5228 12.2339C19.5096 15.1363 18.3064 17.3863 15.9135 18.9839C14.9839 19.5346 13.9839 19.8862 12.9135 20.0386C12.8666 20.7567 12.851 21.4754 12.8666 22.1949C13.3981 22.187 13.9293 22.1949 14.4603 22.2183C15.0273 22.3902 15.2538 22.7731 15.14 23.3667C15.0297 23.6567 14.8344 23.8598 14.5541 23.9761Z" fill="#AFB5B9"/>
</g>
<defs>
<clipPath id="clip0_640_8031">
<rect width="24" height="24" fill="white"/>
</clipPath>
</defs>
</svg>
