<svg width="24" height="28" viewBox="0 0 24 28" fill="none" xmlns="http://www.w3.org/2000/svg">
<g clip-path="url(#clip0_668_2129)">
<path opacity="0.984" fill-rule="evenodd" clip-rule="evenodd" d="M11.6494 3.47656C11.8682 3.47656 12.0869 3.47656 12.3057 3.47656C12.586 3.59291 12.7813 3.79603 12.8916 4.08594C12.9151 4.52316 12.9228 4.96066 12.9151 5.39844C15.734 5.92819 17.5543 7.56881 18.376 10.3203C18.435 10.5838 18.4818 10.8495 18.5166 11.1172C18.518 13.4 18.5492 15.6812 18.6104 17.9609C18.6556 18.1469 18.7571 18.2954 18.9151 18.4062C20.0683 19.0818 20.5605 20.0896 20.3916 21.4297C20.1026 22.6563 19.3448 23.414 18.1182 23.7031C14.0245 23.7344 9.93068 23.7344 5.83694 23.7031C4.15784 23.2418 3.40003 22.1402 3.5635 20.3984C3.75116 19.5078 4.24335 18.8437 5.04007 18.4062C5.19799 18.2954 5.29957 18.1469 5.34475 17.9609C5.40592 15.6812 5.43714 13.4 5.4385 11.1172C5.92455 8.22486 7.57296 6.35766 10.3838 5.51562C10.6015 5.46739 10.8202 5.42833 11.0401 5.39844C11.0323 4.96066 11.0401 4.52316 11.0635 4.08594C11.1738 3.79603 11.3691 3.59291 11.6494 3.47656ZM11.9307 7.22656C13.945 7.32827 15.3903 8.28139 16.2666 10.0859C16.5175 10.6691 16.6425 11.2784 16.6416 11.9141C16.6572 14.0234 16.6729 16.1328 16.6885 18.2422C16.88 19.152 17.3879 19.816 18.2119 20.2344C18.5389 20.6186 18.578 21.0327 18.3291 21.4766C18.2092 21.6186 18.0607 21.7202 17.8838 21.7812C14.0415 21.8586 10.1977 21.8742 6.35257 21.8281C5.6576 21.728 5.36852 21.3295 5.48538 20.6328C5.55283 20.4874 5.6388 20.3546 5.74319 20.2344C6.58863 19.8103 7.09643 19.1307 7.26663 18.1953C7.28224 16.1015 7.29789 14.0078 7.3135 11.9141C7.42207 9.80647 8.44549 8.34552 10.3838 7.53125C10.8923 7.35816 11.4079 7.2566 11.9307 7.22656Z" fill="#36454F"/>
<path opacity="0.985" fill-rule="evenodd" clip-rule="evenodd" d="M14.1811 27.4766C12.7124 27.4766 11.2436 27.4766 9.77484 27.4766C9.25364 27.215 9.05831 26.7931 9.1889 26.2109C9.29048 25.9219 9.48576 25.7266 9.77484 25.625C11.2436 25.5937 12.7124 25.5937 14.1811 25.625C14.7085 25.8755 14.9039 26.2895 14.767 26.8672C14.6567 27.1571 14.4614 27.3602 14.1811 27.4766Z" fill="#36454F"/>
</g>
<circle cx="18.5" cy="4" r="3.5" fill="#FF3333"/>
<defs>
<clipPath id="clip0_668_2129">
<rect width="24" height="24" fill="white" transform="translate(0 3.5)"/>
</clipPath>
</defs>
</svg>
