<svg width="24" height="24" viewBox="0 0 24 24" fill="none" xmlns="http://www.w3.org/2000/svg">
<g clip-path="url(#clip0_640_8037)">
<path opacity="0.984" fill-rule="evenodd" clip-rule="evenodd" d="M11.6494 -0.0234375C11.8682 -0.0234375 12.0869 -0.0234375 12.3057 -0.0234375C12.586 0.0929077 12.7813 0.296032 12.8916 0.585938C12.9151 1.02316 12.9228 1.46066 12.9151 1.89844C15.734 2.42819 17.5543 4.06881 18.376 6.82031C18.435 7.08384 18.4818 7.34948 18.5166 7.61719C18.518 9.89995 18.5492 12.1812 18.6104 14.4609C18.6556 14.6469 18.7571 14.7954 18.9151 14.9062C20.0683 15.5818 20.5605 16.5896 20.3916 17.9297C20.1026 19.1563 19.3448 19.914 18.1182 20.2031C14.0245 20.2344 9.93068 20.2344 5.83694 20.2031C4.15784 19.7418 3.40003 18.6402 3.5635 16.8984C3.75116 16.0078 4.24335 15.3437 5.04007 14.9062C5.19799 14.7954 5.29957 14.6469 5.34475 14.4609C5.40592 12.1812 5.43714 9.89995 5.4385 7.61719C5.92455 4.72486 7.57296 2.85766 10.3838 2.01562C10.6015 1.96739 10.8202 1.92833 11.0401 1.89844C11.0323 1.46066 11.0401 1.02316 11.0635 0.585938C11.1738 0.296032 11.3691 0.0929077 11.6494 -0.0234375ZM11.9307 3.72656C13.945 3.82827 15.3903 4.78139 16.2666 6.58594C16.5175 7.16906 16.6425 7.77844 16.6416 8.41406C16.6572 10.5234 16.6729 12.6328 16.6885 14.7422C16.88 15.652 17.3879 16.316 18.2119 16.7344C18.5389 17.1186 18.578 17.5327 18.3291 17.9766C18.2092 18.1186 18.0607 18.2202 17.8838 18.2812C14.0415 18.3586 10.1977 18.3742 6.35257 18.3281C5.6576 18.228 5.36852 17.8295 5.48538 17.1328C5.55283 16.9874 5.6388 16.8546 5.74319 16.7344C6.58863 16.3103 7.09643 15.6307 7.26663 14.6953C7.28224 12.6015 7.29789 10.5078 7.3135 8.41406C7.42207 6.30647 8.44549 4.84552 10.3838 4.03125C10.8923 3.85816 11.4079 3.7566 11.9307 3.72656Z" fill="#36454F"/>
<path opacity="0.985" fill-rule="evenodd" clip-rule="evenodd" d="M14.1811 23.9766C12.7124 23.9766 11.2436 23.9766 9.77484 23.9766C9.25364 23.715 9.05831 23.2931 9.1889 22.7109C9.29048 22.4219 9.48576 22.2266 9.77484 22.125C11.2436 22.0937 12.7124 22.0937 14.1811 22.125C14.7085 22.3755 14.9039 22.7895 14.767 23.3672C14.6567 23.6571 14.4614 23.8602 14.1811 23.9766Z" fill="#36454F"/>
</g>
<defs>
<clipPath id="clip0_640_8037">
<rect width="24" height="24" fill="white"/>
</clipPath>
</defs>
</svg>
