<svg width="30" height="30" viewBox="0 0 30 30" fill="none" xmlns="http://www.w3.org/2000/svg">
<g clip-path="url(#clip0_686_5098)">
<path opacity="0.971" fill-rule="evenodd" clip-rule="evenodd" d="M4.6582 -0.0292969C11.5332 -0.0292969 18.4082 -0.0292969 25.2832 -0.0292969C26.3344 0.289816 26.9691 0.992941 27.1875 2.08008C27.2266 11.1035 27.2266 20.127 27.1875 29.1504C27.0778 29.5233 26.8532 29.7967 26.5137 29.9707C26.2598 29.9707 26.0058 29.9707 25.752 29.9707C24.5198 29.1539 23.2992 28.314 22.0898 27.4512C20.8992 28.2851 19.7175 29.125 18.5449 29.9707C18.291 29.9707 18.0371 29.9707 17.7832 29.9707C16.8296 29.2128 15.8921 28.4315 14.9707 27.627C14.0493 28.4315 13.1118 29.2128 12.1582 29.9707C11.9043 29.9707 11.6504 29.9707 11.3965 29.9707C10.2271 29.1342 9.0552 28.2943 7.88086 27.4512C6.65666 28.3068 5.42622 29.1467 4.18945 29.9707C3.93555 29.9707 3.68164 29.9707 3.42774 29.9707C3.08824 29.7967 2.86363 29.5233 2.75391 29.1504C2.71484 20.127 2.71484 11.1035 2.75391 2.08008C2.97226 0.992941 3.60703 0.289816 4.6582 -0.0292969ZM5.12695 2.08008C11.6895 2.07031 18.252 2.08008 24.8145 2.10938C24.8983 2.13663 24.9666 2.18546 25.0195 2.25586C25.0586 10.459 25.0586 18.6621 25.0195 26.8652C24.248 26.3281 23.4766 25.791 22.7051 25.2539C22.2744 24.9858 21.8447 24.9858 21.416 25.2539C20.351 26.0067 19.2865 26.7587 18.2227 27.5098C17.3542 26.7586 16.4851 26.0067 15.6152 25.2539C15.1856 24.9804 14.7558 24.9804 14.3262 25.2539C13.4563 26.0067 12.5872 26.7586 11.7188 27.5098C10.6549 26.7587 9.59045 26.0067 8.52539 25.2539C8.09672 24.9858 7.66705 24.9858 7.23633 25.2539C6.46483 25.791 5.69336 26.3281 4.92188 26.8652C4.88281 18.6621 4.88281 10.459 4.92188 2.25586C4.98897 2.18927 5.05733 2.13068 5.12695 2.08008Z" fill="#380835"/>
<path opacity="0.985" fill-rule="evenodd" clip-rule="evenodd" d="M9.05273 5.53687C12.9981 5.5271 16.9434 5.53687 20.8887 5.56616C21.3482 5.752 21.6021 6.0938 21.6504 6.59155C21.629 7.11046 21.3751 7.45224 20.8887 7.61694C16.9434 7.65603 12.998 7.65603 9.05273 7.61694C8.56635 7.45224 8.3124 7.11046 8.29102 6.59155C8.34615 6.0887 8.60004 5.73714 9.05273 5.53687Z" fill="#380835"/>
<path opacity="0.96" fill-rule="evenodd" clip-rule="evenodd" d="M9.11049 11.1033C13.0168 11.0935 16.923 11.1033 20.8292 11.1326C21.6017 11.4778 21.8068 12.0345 21.4445 12.8025C21.259 13.0466 21.0149 13.1931 20.7121 13.242C16.884 13.281 13.0558 13.281 9.22768 13.242C8.48459 13.035 8.20135 12.5565 8.37807 11.8064C8.50745 11.4453 8.75161 11.2109 9.11049 11.1033Z" fill="#380835"/>
<path opacity="0.959" fill-rule="evenodd" clip-rule="evenodd" d="M9.22627 16.6697C11.199 16.6599 13.1717 16.6697 15.1442 16.699C15.9875 16.9804 16.2316 17.537 15.8767 18.3689C15.7025 18.5973 15.4779 18.7438 15.2028 18.8084C13.1716 18.8474 11.1404 18.8474 9.10909 18.8084C8.33659 18.4631 8.13151 17.9065 8.49385 17.1384C8.69178 16.8986 8.93594 16.7423 9.22627 16.6697Z" fill="#380835"/>
</g>
<defs>
<clipPath id="clip0_686_5098">
<rect width="30" height="30" fill="white"/>
</clipPath>
</defs>
</svg>
