<svg width="68" height="25" viewBox="0 0 68 25" fill="none" xmlns="http://www.w3.org/2000/svg">
<path d="M21.3809 16.5093C21.293 16.2754 20.9457 16.2601 20.8341 16.4838C19.2173 19.7257 15.8685 21.9526 11.9996 21.9526C6.55059 21.9526 2.13327 17.5351 2.13327 12.0859C2.13327 6.63673 6.55059 2.21927 11.9996 2.21927C17.267 2.21927 21.5702 6.34702 21.8514 11.5444C21.8516 11.549 21.8554 11.5526 21.86 11.5526C21.8649 11.5526 21.8688 11.5566 21.8687 11.5615C21.8669 11.6472 21.866 11.7331 21.866 11.8193C21.866 11.8638 21.8662 11.9082 21.8667 11.9526C21.8662 11.997 21.866 12.0414 21.866 12.0859C21.866 18.7134 27.2384 24.0859 33.8656 24.0859C38.142 24.0859 41.8959 21.8489 44.021 18.4812C44.0726 18.3994 44.0742 18.296 44.0278 18.2111C43.7294 17.6659 43.468 17.0975 43.2469 16.5093C43.159 16.2754 42.8117 16.2601 42.7001 16.4838C41.0832 19.7257 37.7345 21.9526 33.8656 21.9526C28.5068 21.9526 24.1458 17.6802 24.0029 12.3558C24.0028 12.354 24.0014 12.3526 23.9997 12.3526C23.9978 12.3526 23.9964 12.3511 23.9964 12.3493C23.9964 12.3483 23.9965 12.3473 23.9965 12.3463C23.9983 12.2597 23.9993 12.1729 23.9993 12.0859C23.9993 10.3198 23.6177 8.64283 22.9326 7.13287C21.0468 2.97662 16.8608 0.0859375 11.9996 0.0859375C5.37242 0.0859375 0 5.45852 0 12.0859C0 18.7134 5.37242 24.0859 11.9996 24.0859C16.276 24.0859 20.0299 21.8489 22.155 18.4812C22.2066 18.3994 22.2082 18.296 22.1618 18.2111C21.8634 17.6659 21.602 17.0975 21.3809 16.5093Z" fill="#380835"/>
<path d="M45.8653 12.0859C45.8653 12.174 45.8643 12.2617 45.8624 12.3493C45.8624 12.3511 45.8638 12.3526 45.8656 12.3526C45.8674 12.3526 45.8688 12.354 45.8689 12.3558C46.0118 17.6802 50.3728 21.9526 55.7316 21.9526C61.1807 21.9526 65.598 17.5351 65.598 12.0859C65.598 6.63673 61.1807 2.21927 55.7316 2.21927C51.9063 2.21927 48.5894 4.39634 46.9523 7.5791C46.838 7.80134 46.4911 7.78179 46.406 7.5468C46.1921 6.95596 45.9377 6.38455 45.646 5.83593C45.6006 5.7505 45.6034 5.64706 45.6561 5.56589C47.7946 2.26782 51.5083 0.0859375 55.7316 0.0859375C62.3588 0.0859375 67.7312 5.45852 67.7312 12.0859C67.7312 18.7134 62.3588 24.0859 55.7316 24.0859C49.1044 24.0859 43.732 18.7134 43.732 12.0859C43.732 12.0414 43.7322 11.997 43.7327 11.9526C43.7322 11.9082 43.732 11.8638 43.732 11.8193C43.732 11.7331 43.7329 11.6472 43.7347 11.5615C43.7348 11.5566 43.7309 11.5526 43.726 11.5526C43.7214 11.5526 43.7176 11.549 43.7174 11.5444C43.4362 6.34702 39.133 2.21927 33.8656 2.21927C30.0403 2.21927 26.7234 4.39634 25.0863 7.5791C24.972 7.80134 24.6251 7.78179 24.54 7.5468C24.3261 6.95596 24.0717 6.38455 23.78 5.83593C23.7346 5.7505 23.7374 5.64706 23.7901 5.56589C25.9286 2.26782 29.6423 0.0859375 33.8656 0.0859375C38.7268 0.0859375 42.9128 2.97662 44.7986 7.13287C45.4837 8.64283 45.8653 10.3198 45.8653 12.0859Z" fill="#380835"/>
<path d="M14.7662 12.5276C14.7662 11.622 14.6384 10.8443 14.3829 10.1943C14.1273 9.53872 13.7746 9.03594 13.3246 8.68594C12.8746 8.33038 12.3552 8.15261 11.7663 8.15261C11.183 8.15261 10.6608 8.32205 10.1997 8.66094C9.74414 8.99427 9.38304 9.46927 9.11639 10.0859C8.85528 10.7026 8.72473 11.4332 8.72473 12.2776C8.72473 13.172 8.8525 13.947 9.10805 14.6026C9.36916 15.2582 9.72748 15.7637 10.183 16.1193C10.6386 16.4748 11.1663 16.6526 11.7663 16.6526C12.3218 16.6526 12.8246 16.4887 13.2746 16.1609C13.7301 15.8332 14.0912 15.3609 14.3579 14.7443C14.6301 14.1276 14.7662 13.3887 14.7662 12.5276ZM17.1411 12.3193C17.1411 13.3193 16.9911 14.2137 16.6912 15.0026C16.3967 15.7915 15.994 16.4609 15.4829 17.0109C14.9718 17.5554 14.3884 17.972 13.7329 18.2609C13.0774 18.5498 12.3941 18.6943 11.683 18.6943C10.7274 18.6943 9.84414 18.4554 9.03306 17.9776C8.22197 17.4943 7.57199 16.7915 7.08312 15.8693C6.59424 14.9415 6.3498 13.8137 6.3498 12.4859C6.3498 11.4859 6.49702 10.5943 6.79146 9.81094C7.09145 9.02205 7.49977 8.3526 8.01642 7.8026C8.53307 7.2526 9.11916 6.83316 9.7747 6.54427C10.4358 6.25538 11.1274 6.11094 11.8496 6.11094C12.7996 6.11094 13.6746 6.3526 14.4746 6.83594C15.2801 7.31372 15.9245 8.01372 16.4078 8.93594C16.8967 9.85816 17.1411 10.9859 17.1411 12.3193Z" fill="#380835"/>
<path d="M28.8241 6.8526H38.6155V8.93594C38.3155 8.86372 38.0044 8.81927 37.6822 8.8026C37.3655 8.78038 37.0378 8.76927 36.6989 8.76927H34.8906V15.5776C34.8906 16.3554 34.8989 17.0443 34.9156 17.6443C34.9378 18.2443 34.985 18.7026 35.0573 19.0193H32.349C32.4212 18.7026 32.4657 18.2443 32.4823 17.6443C32.5046 17.0443 32.5157 16.3554 32.5157 15.5776V8.76927H30.7407C30.4074 8.76927 30.0796 8.78038 29.7574 8.8026C29.4352 8.81927 29.1241 8.86372 28.8241 8.93594V6.8526Z" fill="#380835"/>
<path d="M59.9898 15.1109L60.4065 17.3193C60.0676 17.5915 59.6565 17.8304 59.1732 18.0359C58.6899 18.2415 58.1843 18.4026 57.6566 18.5193C57.1343 18.6359 56.6344 18.6943 56.1566 18.6943C55.0066 18.6943 54.0178 18.4443 53.19 17.9443C52.3623 17.4443 51.7262 16.7359 51.2818 15.8193C50.8373 14.9026 50.6151 13.8193 50.6151 12.5693C50.6151 11.497 50.7679 10.5582 51.0734 9.7526C51.3845 8.94149 51.8095 8.26649 52.3484 7.7276C52.8873 7.18872 53.5039 6.78594 54.1983 6.51927C54.8983 6.24705 55.6344 6.11094 56.4066 6.11094C57.1732 6.11094 57.8593 6.19705 58.4649 6.36927C59.076 6.54149 59.6815 6.84427 60.2815 7.2776L59.6982 9.27761C59.1704 8.86094 58.6454 8.56372 58.1232 8.38594C57.6066 8.2026 57.076 8.11094 56.5316 8.11094C55.8594 8.11094 55.2539 8.26927 54.715 8.58594C54.1817 8.90261 53.7595 9.37483 53.4484 10.0026C53.1428 10.6304 52.99 11.4165 52.99 12.3609C52.99 13.6998 53.2956 14.7498 53.9067 15.5109C54.5233 16.272 55.3705 16.6526 56.4483 16.6526C57.076 16.6526 57.7093 16.5137 58.3482 16.2359C58.9871 15.9526 59.5343 15.5776 59.9898 15.1109Z" fill="#380835"/>
</svg>
