<svg width="12" height="13" viewBox="0 0 12 13" fill="none" xmlns="http://www.w3.org/2000/svg">
<path opacity="0.986" fill-rule="evenodd" clip-rule="evenodd" d="M2.84772 2.47998C4.94929 2.47607 7.05086 2.47998 9.15241 2.4917C9.6025 2.63772 9.79392 2.94632 9.72663 3.41748C9.64033 3.73811 9.43331 3.92952 9.10553 3.9917C7.05084 3.9995 4.99617 4.00733 2.94147 4.01514C2.42139 4.16795 2.19873 4.5156 2.2735 5.05811C2.3912 5.47843 2.66856 5.70109 3.10553 5.72607C5.13679 5.73388 7.16803 5.74171 9.19928 5.74951C10.2688 5.95185 10.9368 6.58077 11.2032 7.63623C11.3622 8.72809 10.9833 9.57573 10.0665 10.1792C9.77383 10.3419 9.46134 10.4434 9.12897 10.4839C7.0274 10.4995 4.92585 10.4995 2.82428 10.4839C2.37419 10.3379 2.18278 10.0293 2.25006 9.5581C2.32175 9.27547 2.49754 9.09189 2.77741 9.00732C4.86234 8.97632 6.94828 8.96068 9.03522 8.96045C9.59207 8.78071 9.80692 8.40182 9.67975 7.82373C9.56798 7.53226 9.36095 7.34865 9.05866 7.27295C6.96546 7.24218 4.87169 7.22657 2.77741 7.22607C1.6485 7.00342 0.97272 6.32764 0.750064 5.19873C0.657139 4.02088 1.13761 3.17322 2.19147 2.65576C2.40747 2.57448 2.62621 2.51588 2.84772 2.47998Z" fill="#1E1E1E"/>
<path opacity="0.962" fill-rule="evenodd" clip-rule="evenodd" d="M10.5822 2.48108C11.2105 2.46488 11.5113 2.76956 11.4845 3.39515C11.3611 3.82297 11.0759 4.02219 10.629 3.9928C10.1735 3.88888 9.95869 3.60372 9.9845 3.13733C10.0503 2.79346 10.2495 2.57471 10.5822 2.48108Z" fill="#1E1E1E"/>
<path opacity="0.962" fill-rule="evenodd" clip-rule="evenodd" d="M1.13674 8.97137C1.60257 8.95694 1.88772 9.17568 1.99221 9.62762C1.99617 10.233 1.69539 10.5182 1.08986 10.4831C0.638538 10.3517 0.439319 10.0509 0.492208 9.58075C0.584695 9.24751 0.79954 9.0444 1.13674 8.97137Z" fill="#1E1E1E"/>
</svg>
