<svg width="30" height="30" viewBox="0 0 30 30" fill="none" xmlns="http://www.w3.org/2000/svg">
<g clip-path="url(#clip0_686_5082)">
<path opacity="0.977" fill-rule="evenodd" clip-rule="evenodd" d="M12.5098 -0.0292969C14.1504 -0.0292969 15.791 -0.0292969 17.4316 -0.0292969C18.9524 0.269924 20.0364 1.1293 20.6836 2.54883C20.8333 2.92634 20.931 3.31696 20.9766 3.7207C21.0059 5.45888 21.0156 7.19713 21.0059 8.93555C22.7443 8.92576 24.4825 8.93555 26.2207 8.96484C27.7498 9.18615 28.8728 9.97717 29.5898 11.3379C29.7485 11.7257 29.8754 12.1164 29.9707 12.5098C29.9707 14.1504 29.9707 15.791 29.9707 17.4316C29.5852 19.1554 28.55 20.2979 26.8652 20.8594C26.6515 20.9047 26.4367 20.9438 26.2207 20.9766C23.9941 21.0156 21.7676 21.0156 19.541 20.9766C18.8072 20.7488 18.5044 20.2508 18.6328 19.4824C18.7598 19.043 19.043 18.7598 19.4824 18.6328C21.6699 18.6133 23.8574 18.5937 26.0449 18.5742C27.0071 18.3346 27.5247 17.7193 27.5977 16.7285C27.6367 15.5566 27.6367 14.3848 27.5977 13.2129C27.5247 12.2221 27.0071 11.6068 26.0449 11.3672C23.8574 11.3477 21.6699 11.3281 19.4824 11.3086C19.043 11.1816 18.7598 10.8984 18.6328 10.459C18.6133 8.29102 18.5937 6.12305 18.5742 3.95508C18.361 2.96075 17.7458 2.42364 16.7285 2.34375C15.5566 2.30469 14.3848 2.30469 13.2129 2.34375C12.2221 2.41672 11.6068 2.93429 11.3672 3.89648C11.3477 6.08396 11.3281 8.2715 11.3086 10.459C11.1816 10.8984 10.8984 11.1816 10.459 11.3086C8.2715 11.3281 6.08396 11.3477 3.89648 11.3672C2.93429 11.6068 2.41672 12.2221 2.34375 13.2129C2.29039 14.5427 2.30992 15.8709 2.40234 17.1973C2.6391 17.9419 3.13715 18.4009 3.89648 18.5742C6.08396 18.5937 8.2715 18.6133 10.459 18.6328C10.8984 18.7598 11.1816 19.043 11.3086 19.4824C11.3281 21.6504 11.3477 23.8184 11.3672 25.9863C11.5804 26.9807 12.1956 27.5177 13.2129 27.5977C14.3848 27.6367 15.5566 27.6367 16.7285 27.5977C17.6056 27.5355 18.2013 27.096 18.5156 26.2793C18.5665 25.9257 18.6251 25.5741 18.6914 25.2246C19.0552 24.5823 19.5923 24.3772 20.3027 24.6094C20.8062 24.8603 21.0405 25.2705 21.0059 25.8398C20.7816 28.0653 19.5902 29.4422 17.4316 29.9707C15.791 29.9707 14.1504 29.9707 12.5098 29.9707C10.989 29.6715 9.90504 28.8121 9.25781 27.3926C9.10494 27.0156 9.00732 26.6249 8.96484 26.2207C8.93555 24.4825 8.92576 22.7443 8.93555 21.0059C7.19713 21.0156 5.45888 21.0059 3.7207 20.9766C2.19163 20.7553 1.06859 19.9642 0.351562 18.6035C0.20498 18.232 0.0780264 17.8608 -0.0292969 17.4902C-0.0292969 15.8105 -0.0292969 14.1309 -0.0292969 12.4512C0.296568 10.9625 1.15594 9.89807 2.54883 9.25781C2.92634 9.10811 3.31696 9.01043 3.7207 8.96484C5.45888 8.93555 7.19713 8.92576 8.93555 8.93555C8.92576 7.19713 8.93555 5.45888 8.96484 3.7207C9.18592 2.19179 9.97693 1.06874 11.3379 0.351562C11.7257 0.192929 12.1164 0.0659754 12.5098 -0.0292969Z" fill="#380835"/>
</g>
<defs>
<clipPath id="clip0_686_5082">
<rect width="30" height="30" fill="white"/>
</clipPath>
</defs>
</svg>
