<svg width="76" height="16" viewBox="0 0 76 16" fill="none" xmlns="http://www.w3.org/2000/svg">
<path fill-rule="evenodd" clip-rule="evenodd" d="M71.8349 3.29773C71.2071 4.23951 69.8694 4.75479 67.8159 5.35662V4.99777L67.8159 5.3342C67.8159 11.2023 69.1533 13.2365 71.8447 15.7069L71.846 15.708L71.8475 15.7093C71.8606 15.7286 71.8827 15.7412 71.9078 15.7412C71.9325 15.7412 71.9543 15.729 71.9675 15.7103L71.9714 15.7069C74.6628 13.2365 76.0003 11.2023 76.0003 5.3342V4.99776L75.9997 5.35662C73.9462 4.7548 72.6085 4.23941 71.9807 3.29767C71.9649 3.27401 71.9496 3.25009 71.9347 3.22588H71.8809C71.8662 3.24981 71.8511 3.27347 71.8355 3.29686V3.22588L71.8349 3.29773ZM71.8349 3.29773V3.42768L71.8355 3.29686L71.8349 3.29773ZM70.7746 12.0705L70.8923 9.69988H70.3235C70.2953 9.69988 70.2775 9.66953 70.2913 9.64493L71.8683 6.83101C71.8805 6.80929 71.9061 6.80753 71.9225 6.81924C71.9272 6.82113 71.9317 6.82412 71.9357 6.82838L73.8789 8.86843C73.8924 8.88267 73.8925 8.90506 73.8789 8.91931L72.8885 9.96105C72.8691 9.98149 72.8349 9.97346 72.8265 9.94652L72.7177 9.59434L72.1161 9.82005L70.8437 12.0904C70.8246 12.1244 70.7727 12.1095 70.7746 12.0705Z" fill="#F5F5F5"/>
<path fill-rule="evenodd" clip-rule="evenodd" d="M0.3125 15.7412V0.6469H6.67373C7.62252 0.6469 8.48506 0.862534 9.26134 1.2938C10.0376 1.72507 10.6558 2.32165 11.1158 3.08356C11.5758 3.84546 11.8058 4.72956 11.8058 5.73585C11.8058 6.72776 11.5758 7.60467 11.1158 8.36658C10.6702 9.12848 10.052 9.72507 9.26134 10.1563C8.48506 10.5876 7.60814 10.8032 6.6306 10.8032H2.38259V15.7412H0.3125ZM6.3934 8.97035H2.38259V2.47979H6.41496C7.01874 2.47979 7.5722 2.60917 8.07535 2.86793C8.5785 3.11231 8.98102 3.47889 9.28291 3.96766C9.58479 4.45643 9.73574 5.04582 9.73574 5.73585C9.73574 6.4115 9.58479 6.99371 9.28291 7.48248C8.98102 7.97125 8.5785 8.34501 8.07535 8.60377C7.5722 8.84816 7.01155 8.97035 6.3934 8.97035Z" fill="#F5F5F5"/>
<path d="M14.2304 15.7412V0H16.2142V15.7412H14.2304Z" fill="#F5F5F5"/>
<path fill-rule="evenodd" clip-rule="evenodd" d="M21.1583 15.2453C21.9346 15.7484 22.8618 16 23.94 16C24.6732 16 25.3057 15.8778 25.8376 15.6334C26.3839 15.389 26.8439 15.0728 27.2177 14.6846C27.5914 14.2965 27.8861 13.9012 28.1018 13.4987H28.1449V15.7412H30.1503V10.1779C30.1503 9.11411 29.9203 8.15094 29.4603 7.28841C29.0146 6.42588 28.3677 5.74304 27.5195 5.23989C26.6858 4.73675 25.6938 4.48518 24.5438 4.48518C23.3362 4.48518 22.3012 4.74394 21.4386 5.26146C20.5761 5.7646 19.9148 6.45463 19.4548 7.33154C18.9948 8.19407 18.7648 9.16442 18.7648 10.2426C18.7648 11.3208 18.9732 12.2983 19.3901 13.1752C19.807 14.0377 20.3964 14.7278 21.1583 15.2453ZM26.3551 13.7574C25.8088 14.1168 25.1763 14.2965 24.4575 14.2965C23.6812 14.2965 23.02 14.1168 22.4737 13.7574C21.9274 13.398 21.5105 12.9164 21.223 12.3127C20.9355 11.6945 20.7917 11.0117 20.7917 10.2642C20.7917 9.50225 20.9355 8.81222 21.223 8.19407C21.5249 7.57592 21.949 7.08715 22.4953 6.72776C23.0559 6.36837 23.7244 6.18868 24.5007 6.18868C25.2338 6.18868 25.8735 6.36837 26.4198 6.72776C26.9661 7.07278 27.383 7.54717 27.6705 8.15094C27.9724 8.75472 28.1233 9.43756 28.1233 10.1995C28.1233 10.9757 27.9652 11.673 27.6489 12.2911C27.347 12.9093 26.9158 13.398 26.3551 13.7574Z" fill="#F5F5F5"/>
<path d="M38.6352 15.7412C37.4995 15.7412 36.486 15.4969 35.5947 15.0081C34.7034 14.5193 33.999 13.8652 33.4815 13.0458C32.964 12.212 32.7052 11.2776 32.7052 10.2426C32.7052 9.20755 32.964 8.28032 33.4815 7.46092C33.999 6.62713 34.7034 5.96586 35.5947 5.47709C36.486 4.98832 37.4995 4.74394 38.6352 4.74394H39.929V6.44744H38.5705C37.8373 6.44744 37.176 6.61995 36.5866 6.96496C36.0116 7.2956 35.5516 7.74843 35.2066 8.32345C34.8759 8.89847 34.7106 9.53818 34.7106 10.2426C34.7106 10.947 34.8759 11.5867 35.2066 12.1617C35.5516 12.7367 36.0116 13.1968 36.5866 13.5418C37.176 13.8724 37.8373 14.0377 38.5705 14.0377H39.929V15.7412H38.6352Z" fill="#F5F5F5"/>
<path fill-rule="evenodd" clip-rule="evenodd" d="M44.5459 15.0728C45.4803 15.5184 46.5585 15.7412 47.7804 15.7412H50.6053V14.0377H47.7373C47.0329 14.0377 46.386 13.9227 45.7966 13.6927C45.2216 13.4483 44.7472 13.0961 44.3734 12.6361C43.9997 12.1617 43.7768 11.5867 43.705 10.9111H51.8991C51.9422 10.6235 51.9638 10.3073 51.9638 9.96226C51.9638 8.9416 51.7769 8.02156 51.4031 7.20216C51.0293 6.36837 50.4615 5.7071 49.6996 5.21833C48.9521 4.72956 48.0105 4.48518 46.8748 4.48518C45.8254 4.48518 44.9053 4.73675 44.1147 5.23989C43.324 5.74304 42.7058 6.43306 42.2602 7.30997C41.8146 8.17251 41.5917 9.15004 41.5917 10.2426C41.5917 11.3495 41.8505 12.3199 42.368 13.1536C42.8999 13.973 43.6259 14.6128 44.5459 15.0728ZM49.9584 9.50943H43.6834C43.7121 8.96316 43.8487 8.43845 44.0931 7.93531C44.3519 7.41779 44.7112 6.99371 45.1713 6.66307C45.6457 6.31806 46.2135 6.14555 46.8748 6.14555C47.6654 6.14555 48.2836 6.33244 48.7292 6.7062C49.1749 7.06559 49.4912 7.50404 49.678 8.02156C49.8649 8.53908 49.9584 9.03504 49.9584 9.50943Z" fill="#F5F5F5"/>
<path fill-rule="evenodd" clip-rule="evenodd" d="M60.0568 16C58.993 16 58.037 15.77 57.1889 15.31C56.3407 14.85 55.665 14.1887 55.1619 13.3261C54.6731 12.4492 54.4287 11.3998 54.4287 10.1779V0H56.4126V6.7062H56.4557C56.8151 6.04492 57.347 5.51303 58.0514 5.11051C58.7558 4.69362 59.5321 4.48518 60.3803 4.48518C61.3866 4.48518 62.2922 4.71519 63.0973 5.1752C63.9167 5.63522 64.5564 6.28931 65.0164 7.13747C65.4908 7.97125 65.728 8.96316 65.728 10.1132C65.728 11.3208 65.4836 12.3702 64.9948 13.2615C64.5204 14.1384 63.852 14.814 62.9894 15.2884C62.1413 15.7628 61.1637 16 60.0568 16ZM60.0568 14.2965C60.7325 14.2965 61.3434 14.1312 61.8897 13.8005C62.4504 13.4699 62.896 13.0027 63.2266 12.3989C63.5573 11.7951 63.7226 11.0764 63.7226 10.2426C63.7226 9.43756 63.5573 8.73315 63.2266 8.12938C62.9104 7.52561 62.4719 7.05121 61.9113 6.7062C61.365 6.36119 60.754 6.18868 60.0784 6.18868C59.4027 6.18868 58.7846 6.354 58.2239 6.68464C57.6776 7.01527 57.2392 7.48967 56.9085 8.10782C56.5923 8.71159 56.4341 9.43037 56.4341 10.2642C56.4341 11.0836 56.5923 11.7951 56.9085 12.3989C57.2392 13.0027 57.6776 13.4699 58.2239 13.8005C58.7702 14.1312 59.3811 14.2965 60.0568 14.2965Z" fill="#F5F5F5"/>
</svg>
