<svg width="142" height="30" viewBox="0 0 142 30" fill="none" xmlns="http://www.w3.org/2000/svg">
<path fill-rule="evenodd" clip-rule="evenodd" d="M134.105 6.18325C132.927 7.94908 130.419 8.91523 126.569 10.0437V9.37082L126.569 10.0016C126.569 21.0044 129.076 24.8184 134.123 29.4504L134.125 29.4524L134.128 29.4549C134.153 29.4911 134.194 29.5148 134.241 29.5148C134.287 29.5148 134.328 29.4919 134.353 29.4567L134.36 29.4504C139.407 24.8184 141.915 21.0044 141.915 10.0016V9.37081L141.914 10.0437C138.063 8.91525 135.555 7.9489 134.378 6.18313C134.348 6.13877 134.32 6.09391 134.292 6.04853H134.191C134.163 6.0934 134.135 6.13776 134.106 6.18162V6.04853L134.105 6.18325ZM134.105 6.18325V6.4269L134.106 6.18162L134.105 6.18325ZM132.116 22.6322L132.337 18.1873H131.271C131.218 18.1873 131.184 18.1304 131.21 18.0842L134.167 12.8081C134.19 12.7674 134.238 12.7641 134.269 12.7861C134.278 12.7896 134.286 12.7952 134.294 12.8032L137.937 16.6283C137.962 16.655 137.962 16.697 137.937 16.7237L136.08 18.677C136.044 18.7153 135.979 18.7002 135.964 18.6497L135.76 17.9894L134.632 18.4126L132.246 22.6695C132.21 22.7333 132.113 22.7052 132.116 22.6322Z" fill="#380835"/>
<path fill-rule="evenodd" clip-rule="evenodd" d="M0 29.5148V1.21294H11.9273C13.7063 1.21294 15.3235 1.61725 16.7791 2.42588C18.2346 3.2345 19.3937 4.3531 20.2562 5.78167C21.1187 7.21024 21.55 8.86793 21.55 10.7547C21.55 12.6146 21.1187 14.2588 20.2562 15.6873C19.4206 17.1159 18.2616 18.2345 16.7791 19.0431C15.3235 19.8517 13.6793 20.2561 11.8464 20.2561H3.88143V29.5148H0ZM11.4017 16.8194H3.88143V4.6496H11.4421C12.5742 4.6496 13.6119 4.89218 14.5553 5.37736C15.4987 5.83558 16.2535 6.52291 16.8195 7.43936C17.3856 8.3558 17.6686 9.46092 17.6686 10.7547C17.6686 12.0216 17.3856 13.1132 16.8195 14.0297C16.2535 14.9461 15.4987 15.6469 14.5553 16.1321C13.6119 16.5903 12.5607 16.8194 11.4017 16.8194Z" fill="#380835"/>
<path d="M26.096 29.5148V0H29.8157V29.5148H26.096Z" fill="#380835"/>
<path fill-rule="evenodd" clip-rule="evenodd" d="M39.0859 28.5849C40.5414 29.5283 42.28 30 44.3016 30C45.6762 30 46.8622 29.7709 47.8595 29.3127C48.8838 28.8544 49.7463 28.2615 50.4472 27.5337C51.148 26.8059 51.7005 26.0647 52.1049 25.31H52.1857V29.5148H55.9458V19.0836C55.9458 17.089 55.5146 15.283 54.652 13.6658C53.8165 12.0485 52.6035 10.7682 51.0132 9.8248C49.4499 8.8814 47.59 8.4097 45.4337 8.4097C43.1695 8.4097 41.2288 8.89488 39.6115 9.86523C37.9943 10.8086 36.7544 12.1024 35.8918 13.7466C35.0293 15.3639 34.598 17.1833 34.598 19.2049C34.598 21.2264 34.9888 23.0593 35.7705 24.7035C36.5522 26.3208 37.6573 27.6146 39.0859 28.5849ZM48.8299 25.7951C47.8056 26.469 46.6196 26.8059 45.2719 26.8059C43.8164 26.8059 42.5765 26.469 41.5522 25.7951C40.528 25.1213 39.7463 24.2183 39.2072 23.0863C38.6681 21.9272 38.3986 20.6469 38.3986 19.2453C38.3986 17.8167 38.6681 16.5229 39.2072 15.3639C39.7732 14.2049 40.5684 13.2884 41.5927 12.6146C42.6439 11.9407 43.8973 11.6038 45.3528 11.6038C46.7275 11.6038 47.9269 11.9407 48.9512 12.6146C49.9755 13.2615 50.7571 14.1509 51.2962 15.283C51.8623 16.4151 52.1453 17.6954 52.1453 19.124C52.1453 20.5795 51.8488 21.8868 51.2558 23.0458C50.6898 24.2048 49.8811 25.1213 48.8299 25.7951Z" fill="#380835"/>
<path d="M71.855 29.5148C69.7256 29.5148 67.8253 29.0566 66.1542 28.1402C64.483 27.2237 63.1622 25.9973 62.1919 24.4609C61.2215 22.8976 60.7364 21.1456 60.7364 19.2049C60.7364 17.2642 61.2215 15.5256 62.1919 13.9892C63.1622 12.4259 64.483 11.186 66.1542 10.2695C67.8253 9.3531 69.7256 8.89488 71.855 8.89488H74.2809V12.0889H71.7337C70.3591 12.0889 69.1192 12.4124 68.014 13.0593C66.9359 13.6792 66.0733 14.5283 65.4264 15.6065C64.8065 16.6846 64.4965 17.8841 64.4965 19.2049C64.4965 20.5256 64.8065 21.7251 65.4264 22.8032C66.0733 23.8814 66.9359 24.7439 68.014 25.3908C69.1192 26.0108 70.3591 26.3208 71.7337 26.3208H74.2809V29.5148H71.855Z" fill="#380835"/>
<path fill-rule="evenodd" clip-rule="evenodd" d="M82.9377 28.2615C84.6897 29.097 86.7113 29.5148 89.0024 29.5148H94.2989V26.3208H88.9215C87.6008 26.3208 86.3878 26.1051 85.2827 25.6739C84.2045 25.2156 83.315 24.5553 82.6142 23.6927C81.9134 22.8032 81.4956 21.7251 81.3608 20.4582H96.7248C96.8057 19.9191 96.8461 19.3261 96.8461 18.6792C96.8461 16.7655 96.4957 15.0404 95.7949 13.504C95.0941 11.9407 94.0294 10.7008 92.6008 9.78437C91.1992 8.86792 89.4337 8.4097 87.3043 8.4097C85.3366 8.4097 83.6115 8.8814 82.1291 9.8248C80.6466 10.7682 79.4875 12.062 78.6519 13.7062C77.8164 15.3234 77.3986 17.1563 77.3986 19.2049C77.3986 21.2803 77.8837 23.0997 78.8541 24.6631C79.8514 26.1995 81.2126 27.3989 82.9377 28.2615ZM93.086 17.8302H81.3204C81.3743 16.8059 81.6304 15.8221 82.0886 14.8787C82.5738 13.9084 83.2477 13.1132 84.1102 12.4933C84.9997 11.8464 86.0644 11.5229 87.3043 11.5229C88.7868 11.5229 89.9458 11.8733 90.7814 12.5741C91.617 13.248 92.21 14.0701 92.5604 15.0404C92.9108 16.0108 93.086 16.9407 93.086 17.8302Z" fill="#380835"/>
<path fill-rule="evenodd" clip-rule="evenodd" d="M112.021 30C110.026 30 108.233 29.5687 106.643 28.7062C105.053 27.8437 103.786 26.6038 102.843 24.9865C101.926 23.3423 101.468 21.3747 101.468 19.0836V0H105.188V12.5741H105.269C105.942 11.3342 106.94 10.3369 108.26 9.58221C109.581 8.80054 111.037 8.4097 112.627 8.4097C114.514 8.4097 116.212 8.84097 117.721 9.70351C119.258 10.566 120.457 11.7925 121.32 13.3828C122.209 14.9461 122.654 16.8059 122.654 18.9623C122.654 21.2264 122.196 23.1941 121.279 24.8652C120.39 26.5094 119.137 27.7763 117.519 28.6658C115.929 29.5553 114.096 30 112.021 30ZM112.021 26.8059C113.287 26.8059 114.433 26.496 115.457 25.876C116.508 25.2561 117.344 24.38 117.964 23.248C118.584 22.1159 118.894 20.7682 118.894 19.2049C118.894 17.6954 118.584 16.3747 117.964 15.2426C117.371 14.1105 116.549 13.221 115.498 12.5741C114.473 11.9272 113.328 11.6038 112.061 11.6038C110.794 11.6038 109.635 11.9137 108.584 12.5337C107.56 13.1536 106.738 14.0431 106.118 15.2022C105.525 16.3342 105.228 17.6819 105.228 19.2453C105.228 20.7817 105.525 22.1159 106.118 23.248C106.738 24.38 107.56 25.2561 108.584 25.876C109.608 26.496 110.754 26.8059 112.021 26.8059Z" fill="#380835"/>
</svg>
