<svg width="10" height="10" viewBox="0 0 10 10" fill="none" xmlns="http://www.w3.org/2000/svg">
<g clip-path="url(#clip0_1304_261)">
<path opacity="0.969" fill-rule="evenodd" clip-rule="evenodd" d="M4.54102 -0.00976562C4.84049 -0.00976562 5.13998 -0.00976562 5.43945 -0.00976562C7.00963 0.177696 8.24986 0.913373 9.16016 2.19727C9.62541 2.91271 9.90209 3.69396 9.99023 4.54102C9.99023 4.84049 9.99023 5.13998 9.99023 5.43945C9.80277 7.00963 9.06709 8.24986 7.7832 9.16016C7.06775 9.62541 6.2865 9.90209 5.43945 9.99023C5.13998 9.99023 4.84049 9.99023 4.54102 9.99023C2.97084 9.80277 1.7306 9.06709 0.820312 7.7832C0.355061 7.06773 0.078367 6.28648 -0.00976562 5.43945C-0.00976562 5.13998 -0.00976562 4.84049 -0.00976562 4.54102C0.177687 2.97086 0.913363 1.73062 2.19727 0.820312C2.91271 0.355066 3.69396 0.0783734 4.54102 -0.00976562ZM4.77539 0.693359C6.46275 0.682324 7.76158 1.37894 8.67188 2.7832C9.49219 4.25455 9.49219 5.72592 8.67188 7.19727C7.81213 8.52756 6.58492 9.22416 4.99023 9.28711C3.39555 9.22416 2.16834 8.52756 1.30859 7.19727C0.488281 5.72592 0.488281 4.25455 1.30859 2.7832C2.11664 1.51731 3.27223 0.820699 4.77539 0.693359Z" fill="#36454F"/>
<path opacity="0.966" fill-rule="evenodd" clip-rule="evenodd" d="M4.71633 2.47066C5.12574 2.43599 5.50985 2.51738 5.86867 2.7148C6.29955 3.03089 6.43301 3.44431 6.26906 3.95503C6.18988 4.15124 6.0792 4.32702 5.93703 4.48238C5.80932 4.60363 5.67584 4.71755 5.53664 4.82417C5.27895 5.06279 5.17152 5.35902 5.21438 5.71285C5.12311 5.83531 4.9994 5.88738 4.84328 5.8691C4.70274 5.88806 4.59207 5.84249 4.51125 5.73238C4.40498 5.30404 4.48311 4.91341 4.74563 4.5605C4.94744 4.38472 5.14928 4.20894 5.3511 4.03316C5.50557 3.84265 5.5251 3.64083 5.40969 3.42769C5.20102 3.25544 4.96338 3.20011 4.6968 3.26167C4.5591 3.29964 4.44518 3.37452 4.355 3.48628C4.24131 3.74314 4.05576 3.8115 3.79836 3.69136C3.62473 3.55747 3.5759 3.38494 3.65188 3.17378C3.77481 2.8816 3.98641 2.68302 4.28664 2.57808C4.42967 2.53072 4.57291 2.49492 4.71633 2.47066Z" fill="#36454F"/>
<path opacity="0.957" fill-rule="evenodd" clip-rule="evenodd" d="M4.81445 6.29883C5.18328 6.33381 5.36232 6.53564 5.35156 6.9043C5.266 7.23205 5.05441 7.37203 4.7168 7.32422C4.47357 7.24699 4.34336 7.08098 4.32617 6.82617C4.36246 6.52959 4.52521 6.35381 4.81445 6.29883Z" fill="#36454F"/>
</g>
<defs>
<clipPath id="clip0_1304_261">
<rect width="10" height="10" fill="white"/>
</clipPath>
</defs>
</svg>
