<svg width="40" height="40" viewBox="0 0 40 40" fill="none" xmlns="http://www.w3.org/2000/svg">
<path opacity="0.991" fill-rule="evenodd" clip-rule="evenodd" d="M7.77352 4.96192C15.8986 4.94889 24.0236 4.96192 32.1485 5.00098C34.3209 5.5067 35.662 6.84784 36.172 9.02442C36.466 11.6796 35.4113 13.5675 33.0079 14.6885C32.8329 14.7648 32.6506 14.8039 32.461 14.8057C32.4741 20.5349 32.461 26.264 32.422 31.9932C32.0183 33.5426 31.0417 34.5192 29.4923 34.9229C23.1381 34.975 16.7839 34.975 10.4298 34.9229C8.88032 34.5192 7.90376 33.5426 7.50009 31.9932C7.46102 26.264 7.448 20.5349 7.46102 14.8057C5.43887 14.2547 4.20189 12.9527 3.75009 10.8994C3.4829 7.81031 4.82404 5.83114 7.77352 4.96192ZM9.96102 7.46192C16.6277 7.46192 23.2944 7.46192 29.961 7.46192C29.9992 15.5116 29.9602 23.5585 29.8438 31.6025C29.6406 32.1145 29.2631 32.3879 28.711 32.4229C22.8777 32.475 17.0444 32.475 11.211 32.4229C10.659 32.3879 10.2814 32.1145 10.0782 31.6025C9.96188 23.5585 9.92282 15.5116 9.96102 7.46192ZM7.3829 7.85254C7.47368 9.24543 7.4867 10.6517 7.42196 12.0713C6.22706 11.1454 5.96664 9.99957 6.64071 8.63379C6.85135 8.33215 7.09874 8.07176 7.3829 7.85254ZM32.461 7.85254C33.6897 8.75715 33.9631 9.90293 33.2813 11.29C33.073 11.6025 32.8126 11.8629 32.5001 12.0713C32.461 10.6653 32.448 9.25902 32.461 7.85254Z" fill="#380835"/>
<path opacity="0.976" fill-rule="evenodd" clip-rule="evenodd" d="M19.4923 13.7096C20.2626 13.5416 20.8225 13.802 21.172 14.4908C21.198 17.3554 21.2241 20.2199 21.2501 23.0846C21.81 22.5246 22.3699 21.9648 22.9298 21.4049C23.6962 21.0363 24.3342 21.1795 24.8439 21.8346C25.0201 22.317 24.9941 22.7857 24.7657 23.2408C23.4246 24.582 22.0835 25.9231 20.7423 27.2642C20.2214 27.5246 19.7007 27.5246 19.1798 27.2642C17.8386 25.9231 16.4975 24.582 15.1564 23.2408C14.8485 22.6071 14.9137 22.0211 15.3517 21.483C15.8804 21.1517 16.4273 21.1256 16.9923 21.4049C17.5522 21.9648 18.1121 22.5246 18.672 23.0846C18.698 20.2199 18.7241 17.3554 18.7501 14.4908C18.9081 14.1377 19.1555 13.8773 19.4923 13.7096Z" fill="#380835"/>
</svg>
