<svg width="32" height="32" viewBox="0 0 32 32" fill="none" xmlns="http://www.w3.org/2000/svg">
<path opacity="0.966" fill-rule="evenodd" clip-rule="evenodd" d="M6.21856 2.59375C8.21868 2.58334 10.2187 2.59375 12.2186 2.625C13.0241 2.84812 13.3887 3.37937 13.3123 4.21875C13.1769 4.8125 12.8123 5.17708 12.2186 5.3125C10.2602 5.33333 8.30187 5.35417 6.34356 5.375C5.85398 5.53125 5.53106 5.85417 5.37481 6.34375C5.37303 8.38837 5.33136 10.4301 5.24981 12.4687C4.69488 13.3965 3.95529 13.5736 3.03106 13C2.82171 12.7792 2.6863 12.5188 2.62481 12.2187C2.56536 10.0711 2.5862 7.92525 2.68731 5.78125C2.98597 4.52473 3.70472 3.59764 4.84356 3C5.29287 2.80479 5.7512 2.66937 6.21856 2.59375Z" fill="#380835"/>
<path opacity="0.966" fill-rule="evenodd" clip-rule="evenodd" d="M19.7236 2.59375C21.7237 2.58334 23.7237 2.59375 25.7236 2.625C27.7948 2.9462 28.9927 4.14411 29.3173 6.21875C29.359 8.21875 29.359 10.2187 29.3173 12.2187C29.0925 13.0266 28.5612 13.3912 27.7236 13.3125C27.2266 13.2154 26.8828 12.9342 26.6923 12.4687C26.6108 10.4301 26.5691 8.38837 26.5673 6.34375C26.4111 5.85417 26.0881 5.53125 25.5986 5.375C23.554 5.37322 21.5123 5.33155 19.4736 5.25C18.729 4.87485 18.4685 4.2811 18.6923 3.46875C18.8975 3.00772 19.2413 2.71605 19.7236 2.59375Z" fill="#380835"/>
<path opacity="0.998" d="M10.1822 8.90587C14.0414 8.89621 17.9006 8.90641 21.7596 8.9364C22.3953 9.14811 22.788 9.54113 22.9995 10.177C23.0393 14.0382 23.0393 17.8994 22.9995 21.7605C22.7879 22.3968 22.3948 22.7899 21.7585 23.0015C17.8974 23.0412 14.0362 23.0412 10.1751 23.0015C9.53882 22.7899 9.14572 22.3967 8.9341 21.7605C8.89438 17.9009 8.89436 14.0413 8.93405 10.1817C9.15531 9.53728 9.55462 9.13203 10.1822 8.90587Z" stroke="#380835" stroke-width="1.875"/>
<path opacity="0.966" fill-rule="evenodd" clip-rule="evenodd" d="M3.71821 18.5936C4.55633 18.5477 5.08758 18.9227 5.31196 19.7186C5.3328 21.6769 5.35363 23.6353 5.37446 25.5936C5.53071 26.0832 5.85363 26.4061 6.34321 26.5623C8.38784 26.5642 10.4295 26.6058 12.4682 26.6873C13.2128 27.0625 13.4733 27.6562 13.2495 28.4686C13.0373 28.9099 12.6935 29.1912 12.2182 29.3123C10.2182 29.354 8.21821 29.354 6.21821 29.3123C4.76709 29.1097 3.69417 28.3702 2.99946 27.0936C2.87036 26.7897 2.7662 26.4772 2.68696 26.1561C2.61709 25.0123 2.58584 23.8664 2.59321 22.7186C2.58453 21.6321 2.61578 20.5488 2.68696 19.4686C2.89212 19.0076 3.23587 18.7159 3.71821 18.5936Z" fill="#380835"/>
<path opacity="0.966" fill-rule="evenodd" clip-rule="evenodd" d="M27.7184 18.5955C28.5566 18.5497 29.0878 18.9247 29.3122 19.7205C29.3539 21.7205 29.3539 23.7205 29.3122 25.7205C28.9892 27.7935 27.7914 28.9914 25.7184 29.3143C23.7184 29.356 21.7184 29.356 19.7184 29.3143C18.9129 29.0912 18.5482 28.5599 18.6247 27.7205C18.7217 27.2235 19.003 26.8798 19.4684 26.6893C21.5071 26.6077 23.5488 26.5661 25.5934 26.5643C26.083 26.408 26.4059 26.0851 26.5622 25.5955C26.583 23.6372 26.6039 21.6789 26.6247 19.7205C26.7506 19.1052 27.1151 18.7302 27.7184 18.5955Z" fill="#380835"/>
</svg>
