<svg width="20" height="20" viewBox="0 0 20 20" fill="none" xmlns="http://www.w3.org/2000/svg">
<g clip-path="url(#clip0_640_8027)">
<path opacity="0.979" fill-rule="evenodd" clip-rule="evenodd" d="M7.59961 -0.0195312C8.13348 -0.0195312 8.6673 -0.0195312 9.20117 -0.0195312C12.4831 0.456449 14.7552 2.22728 16.0176 5.29297C16.9596 8.1893 16.4973 10.8325 14.6309 13.2227C16.2448 14.9343 17.8659 16.64 19.4941 18.3398C19.8257 19.1105 19.6108 19.6574 18.8496 19.9805C18.6673 19.9805 18.485 19.9805 18.3027 19.9805C18.1891 19.9237 18.072 19.8651 17.9512 19.8047C16.3034 18.1114 14.6628 16.4122 13.0293 14.707C10.5657 16.2991 7.96156 16.5661 5.2168 15.5078C2.10451 14.014 0.463887 11.5335 0.294922 8.06641C0.421418 4.9798 1.78861 2.62955 4.39648 1.01562C5.40184 0.461281 6.46953 0.116229 7.59961 -0.0195312ZM8.3418 2.08984C10.9458 2.2148 12.8013 3.45178 13.9082 5.80078C14.7461 8.14367 14.3555 10.253 12.7363 12.1289C10.8013 13.9979 8.5682 14.4601 6.03711 13.5156C3.77388 12.4025 2.57597 10.5795 2.44336 8.04688C2.581 5.50215 3.79194 3.67921 6.07617 2.57812C6.8075 2.27792 7.5627 2.11516 8.3418 2.08984Z" fill="#AFB5B9"/>
</g>
<defs>
<clipPath id="clip0_640_8027">
<rect width="20" height="20" fill="white"/>
</clipPath>
</defs>
</svg>
