<svg width="10" height="11" viewBox="0 0 10 11" fill="none" xmlns="http://www.w3.org/2000/svg">
<g clip-path="url(#clip0_668_2362)">
<path opacity="0.974" fill-rule="evenodd" clip-rule="evenodd" d="M3.9942 0.490234C4.65826 0.490234 5.32233 0.490234 5.98639 0.490234C6.29858 0.577837 6.49715 0.77966 6.58209 1.0957C6.61928 1.33192 6.66486 1.56629 6.71881 1.79883C6.85623 2.0645 7.07434 2.17843 7.37311 2.14062C7.58945 2.06634 7.8043 1.98822 8.01764 1.90625C8.42293 1.81991 8.73217 1.95338 8.94537 2.30664C9.21387 2.7851 9.48731 3.26035 9.76568 3.73242C9.88807 4.01531 9.86854 4.28875 9.70709 4.55273C9.51033 4.74959 9.30199 4.93188 9.08209 5.09961C8.87432 5.38957 8.89061 5.66625 9.13092 5.92969C9.335 6.08168 9.52705 6.2477 9.70709 6.42773C9.86854 6.69172 9.88807 6.96516 9.76568 7.24805C9.48731 7.72012 9.21387 8.19537 8.94537 8.67383C8.73217 9.02709 8.42293 9.16055 8.01764 9.07422C7.8043 8.99225 7.58945 8.91412 7.37311 8.83984C7.07434 8.80203 6.85623 8.91596 6.71881 9.18164C6.66486 9.41418 6.61928 9.64855 6.58209 9.88477C6.49715 10.2008 6.29858 10.4026 5.98639 10.4902C5.32233 10.4902 4.65826 10.4902 3.9942 10.4902C3.68201 10.4026 3.48344 10.2008 3.3985 9.88477C3.36131 9.64855 3.31572 9.41418 3.26178 9.18164C3.12436 8.91596 2.90625 8.80203 2.60748 8.83984C2.39113 8.91412 2.17629 8.99225 1.96295 9.07422C1.55766 9.16055 1.24842 9.02709 1.03522 8.67383C0.766714 8.19537 0.493276 7.72012 0.214903 7.24805C0.0888637 6.96473 0.108395 6.69129 0.273497 6.42773C0.469766 6.23145 0.678098 6.04916 0.898497 5.88086C1.10627 5.5909 1.08999 5.31422 0.849669 5.05078C0.645589 4.89879 0.453532 4.73277 0.273497 4.55273C0.108395 4.28918 0.0888637 4.01574 0.214903 3.73242C0.493276 3.26035 0.766714 2.7851 1.03522 2.30664C1.24842 1.95338 1.55766 1.81991 1.96295 1.90625C2.17629 1.98822 2.39113 2.06634 2.60748 2.14062C2.90625 2.17843 3.12436 2.0645 3.26178 1.79883C3.31572 1.56629 3.36131 1.33192 3.3985 1.0957C3.48344 0.77966 3.68201 0.577837 3.9942 0.490234ZM4.16998 1.27148C4.71686 1.27148 5.26373 1.27148 5.81061 1.27148C5.83654 1.55737 5.8919 1.83732 5.97662 2.11133C6.32127 2.79631 6.87141 3.05998 7.62701 2.90234C7.82895 2.83506 8.0275 2.76018 8.22272 2.67773C8.4968 3.14396 8.76697 3.61271 9.03326 4.08398C8.89988 4.20102 8.76317 4.31494 8.62311 4.42578C8.18928 4.82246 8.04279 5.30748 8.18365 5.88086C8.26746 6.14684 8.41395 6.37145 8.62311 6.55469C8.75656 6.66211 8.89004 6.76953 9.0235 6.87695C8.77297 7.35814 8.50606 7.83342 8.22272 8.30273C7.91465 8.14795 7.58912 8.0568 7.24615 8.0293C6.53469 8.07016 6.08547 8.43475 5.8985 9.12305C5.86281 9.31762 5.83352 9.51293 5.81061 9.70898C5.26373 9.70898 4.71686 9.70898 4.16998 9.70898C4.14404 9.42311 4.08869 9.14314 4.00397 8.86914C3.65932 8.18416 3.10918 7.92049 2.35357 8.07812C2.15164 8.14541 1.95308 8.22029 1.75787 8.30273C1.48379 7.8365 1.21361 7.36775 0.947325 6.89648C1.08071 6.77945 1.21742 6.66553 1.35748 6.55469C1.79132 6.15801 1.9378 5.67299 1.79693 5.09961C1.71313 4.83363 1.56664 4.60902 1.35748 4.42578C1.22402 4.31836 1.09055 4.21094 0.957091 4.10352C1.20761 3.62232 1.47454 3.14705 1.75787 2.67773C2.06594 2.83252 2.39147 2.92367 2.73443 2.95117C3.44537 2.91096 3.89459 2.54637 4.08209 1.85742C4.11777 1.66285 4.14707 1.46754 4.16998 1.27148ZM4.81451 4.35742C5.5175 4.32621 5.95045 4.65174 6.11334 5.33398C6.14688 6.01881 5.83111 6.44523 5.16608 6.61328C4.47381 6.65291 4.04086 6.33715 3.86725 5.66602C3.82984 4.97213 4.14561 4.53592 4.81451 4.35742Z" fill="#1E1E1E"/>
<path opacity="0.971" fill-rule="evenodd" clip-rule="evenodd" d="M4.75592 3.55655C5.59519 3.50253 6.23646 3.82803 6.67974 4.53311C6.96668 5.09116 6.99922 5.66407 6.7774 6.25186C6.46014 6.9169 5.93605 7.30426 5.20514 7.41397C4.3731 7.47161 3.73834 7.14934 3.30084 6.44717C3.0139 5.88913 2.98137 5.31622 3.20318 4.72842C3.51988 4.07051 4.03746 3.67989 4.75592 3.55655ZM4.81451 4.35733C4.1456 4.53583 3.82984 4.97204 3.86724 5.66592C4.04086 6.33706 4.47381 6.65282 5.16607 6.61319C5.83111 6.44514 6.14687 6.01872 6.11334 5.33389C5.95045 4.65165 5.5175 4.32612 4.81451 4.35733Z" fill="#1E1E1E"/>
</g>
<defs>
<clipPath id="clip0_668_2362">
<rect width="10" height="10" fill="white" transform="translate(0 0.5)"/>
</clipPath>
</defs>
</svg>
