<svg width="15" height="15" viewBox="0 0 15 15" fill="none" xmlns="http://www.w3.org/2000/svg">
<g clip-path="url(#clip0_674_3046)">
<path opacity="0.991" fill-rule="evenodd" clip-rule="evenodd" d="M14.9922 5.75735C14.9922 5.90383 14.9922 6.05032 14.9922 6.1968C14.8899 6.43378 14.7336 6.634 14.5234 6.79739C13.504 7.67026 12.4933 8.55406 11.4912 9.44876C11.8035 10.9228 12.1209 12.3975 12.4434 13.8726C12.4141 14.3902 12.1406 14.6636 11.623 14.6929C11.4782 14.6918 11.3415 14.6577 11.2129 14.5904C9.98122 13.8378 8.741 13.1005 7.49219 12.3784C6.22929 13.1186 4.96952 13.8657 3.71289 14.6197C3.29433 14.7827 2.94766 14.6899 2.67285 14.3413C2.5508 14.1423 2.51174 13.9275 2.55566 13.6968C2.88724 12.2828 3.19976 10.8668 3.49316 9.44876C2.36066 8.46271 1.23761 7.46662 0.124023 6.46047C0.0770072 6.38164 0.033062 6.3035 -0.0078125 6.2261C-0.0078125 6.06986 -0.0078125 5.91359 -0.0078125 5.75735C0.103124 5.4367 0.327733 5.24627 0.666016 5.18606C2.12167 5.05461 3.57675 4.91791 5.03125 4.7759C5.62586 3.40598 6.21666 2.03391 6.80371 0.659693C7.11074 0.288022 7.48671 0.205014 7.93164 0.41067C8.03418 0.474147 8.11718 0.557154 8.18066 0.659693C8.76771 2.03391 9.35852 3.40598 9.95312 4.7759C11.4581 4.9136 12.962 5.06008 14.4648 5.21536C14.7268 5.31617 14.9026 5.49684 14.9922 5.75735Z" fill="#8EA1AE"/>
</g>
<defs>
<clipPath id="clip0_674_3046">
<rect width="15" height="15" fill="white"/>
</clipPath>
</defs>
</svg>
