<svg width="9" height="9" viewBox="0 0 9 9" fill="none" xmlns="http://www.w3.org/2000/svg">
<path fill-rule="evenodd" clip-rule="evenodd" d="M1.40004 5.39802C1.17913 5.17711 0.820949 5.17711 0.600032 5.39802L0.400029 5.59802C0.179112 5.81894 0.179112 6.17711 0.400029 6.39802L2.42042 8.41838C2.42189 8.41988 2.42337 8.42138 2.42486 8.42287L2.57634 8.57435C2.57783 8.57584 2.57933 8.57732 2.58083 8.57879L2.60006 8.59802C2.82098 8.81894 3.18135 8.81675 3.40226 8.59583C3.40994 8.58891 3.41748 8.58174 3.42488 8.57435L8.57643 3.42287C8.81075 3.18856 8.81075 2.80866 8.57643 2.57435L8.42495 2.42287C8.19064 2.18856 7.81073 2.18856 7.57642 2.42287L3.40064 6.59859C3.17972 6.8195 2.82154 6.8195 2.60063 6.59859L1.40004 5.39802Z" fill="#F5F5F5"/>
</svg>
