<svg width="240" height="240" viewBox="0 0 240 240" fill="none" xmlns="http://www.w3.org/2000/svg">
<path opacity="0.973" fill-rule="evenodd" clip-rule="evenodd" d="M115.55 19.4512C140.566 18.9468 159.55 29.2593 172.503 50.3887C179.944 64.5089 181.819 79.3528 178.128 94.92C171.726 116.635 157.741 130.932 136.175 137.811C107.277 144.094 84.5425 135.11 67.9717 110.857C59.7325 96.2625 57.5449 80.7937 61.4092 64.4512C69.8927 37.9194 87.9395 22.9194 115.55 19.4512ZM115.081 40.0762C133.886 39.1218 147.558 46.9345 156.097 63.5137C163.062 82.4508 158.921 98.4666 143.675 111.561C126.553 122.7 109.835 122.075 93.5186 109.686C80.8497 97.3701 77.178 82.7606 82.503 65.8575C88.608 51.2348 99.4675 42.6411 115.081 40.0762Z" fill="#F5F5F5"/>
<path opacity="0.972" fill-rule="evenodd" clip-rule="evenodd" d="M108.515 149.765C127.981 148.39 146.888 150.968 165.234 157.499C178.8 162.44 190.284 170.33 199.687 181.171C207.211 190.463 210.492 201.088 209.531 213.046C205.816 220.065 200.426 221.706 193.359 217.968C192.059 216.851 191.044 215.523 190.312 213.984C189.86 202.845 185.25 193.861 176.484 187.031C163.205 177.498 148.361 172.029 131.953 170.624C110.718 168.304 90.5615 171.898 71.4839 181.406C65.4084 184.668 60.1739 188.965 55.7808 194.296C51.6965 199.673 49.6654 205.767 49.687 212.578C46.759 219.235 41.8371 221.345 34.9214 218.906C32.6035 217.525 30.9628 215.572 29.9995 213.046C29.0943 203.23 31.2817 194.167 36.562 185.859C46.151 172.532 58.7292 163.079 74.2964 157.499C85.4301 153.446 96.8362 150.868 108.515 149.765Z" fill="#F5F5F5"/>
</svg>
