<svg width="10" height="11" viewBox="0 0 10 11" fill="none" xmlns="http://www.w3.org/2000/svg">
<path opacity="0.979" fill-rule="evenodd" clip-rule="evenodd" d="M4.8291 2.99414C4.93978 2.99414 5.05046 2.99414 5.16113 2.99414C5.7766 3.09362 6.18513 3.43868 6.38672 4.0293C6.54292 4.69694 6.34924 5.23568 5.80566 5.64551C5.62983 5.76105 5.43777 5.83593 5.22949 5.87012C5.01815 5.88627 4.80656 5.89929 4.59473 5.90918C4.10186 5.95082 3.65264 6.11033 3.24707 6.3877C2.96991 6.59727 2.84947 6.87721 2.88574 7.22754C2.88737 7.28776 2.889 7.34798 2.89062 7.4082C2.90202 7.52376 2.9655 7.58724 3.08105 7.59863C4.3571 7.60515 5.63313 7.60515 6.90918 7.59863C7.02474 7.58724 7.08821 7.52376 7.09961 7.4082C7.10612 7.28776 7.10612 7.16731 7.09961 7.04688C7.0925 6.82275 7.00949 6.63232 6.85059 6.47559C6.785 6.41976 6.71664 6.36768 6.64551 6.31934C6.51908 6.25045 6.39376 6.18046 6.26953 6.10938C6.21094 6.01823 6.21094 5.92708 6.26953 5.83594C6.33286 5.78111 6.4061 5.7632 6.48926 5.78223C6.78569 5.90631 7.04122 6.08697 7.25586 6.32422C7.38435 6.49658 7.4641 6.68863 7.49512 6.90039C7.49512 7.10547 7.49512 7.31055 7.49512 7.51562C7.43001 7.76953 7.27051 7.92903 7.0166 7.99414C5.66895 7.99414 4.32129 7.99414 2.97363 7.99414C2.71973 7.92903 2.56022 7.76953 2.49512 7.51562C2.49512 7.30729 2.49512 7.09896 2.49512 6.89062C2.54843 6.57083 2.70143 6.30879 2.9541 6.10449C3.29634 5.84714 3.6772 5.67136 4.09668 5.57715C3.68983 5.23926 3.50917 4.80469 3.55469 4.27344C3.65101 3.65635 3.99443 3.24782 4.58496 3.04785C4.66677 3.02561 4.74814 3.0077 4.8291 2.99414ZM4.98535 3.38477C5.43479 3.40646 5.75869 3.61805 5.95703 4.01953C6.14158 4.53666 6.01951 4.96472 5.59082 5.30371C5.19368 5.55762 4.79655 5.55762 4.39941 5.30371C3.98831 4.98178 3.85973 4.57 4.01367 4.06836C4.19925 3.64348 4.52313 3.41562 4.98535 3.38477Z" fill="#1E1E1E" stroke="#1E1E1E" stroke-width="0.3"/>
<circle cx="5" cy="5.5" r="4.6" stroke="#1E1E1E" stroke-width="0.8"/>
</svg>
