<svg width="121" height="121" viewBox="0 0 121 121" fill="none" xmlns="http://www.w3.org/2000/svg">
<circle cx="60.5068" cy="60.9863" r="59.5" stroke="#FF0000"/>
<circle cx="60.4951" cy="61.0098" r="55" fill="#FF0000"/>
<path fill-rule="evenodd" clip-rule="evenodd" d="M45.3739 38.8268C44.2023 37.6552 42.3028 37.6552 41.1312 38.8268L38.3028 41.6552C37.1312 42.8268 37.1312 44.7263 38.3028 45.8978L51.7324 59.3274C52.904 60.499 52.904 62.3985 51.7324 63.5701L38.2965 77.006C37.1249 78.1776 37.1249 80.0771 38.2965 81.2486L41.1249 84.0771C42.2965 85.2486 44.196 85.2486 45.3676 84.0771L58.8035 70.6411C59.9751 69.4696 61.8746 69.4696 63.0461 70.6411L76.4866 84.0816C77.6582 85.2532 79.5577 85.2532 80.7292 84.0816L83.5577 81.2532C84.7292 80.0816 84.7292 78.1821 83.5577 77.0105L70.1172 63.5701C68.9456 62.3985 68.9456 60.499 70.1172 59.3274L83.5513 45.8933C84.7229 44.7217 84.7229 42.8222 83.5513 41.6507L80.7229 38.8222C79.5513 37.6507 77.6518 37.6507 76.4803 38.8222L63.0461 52.2564C61.8746 53.4279 59.9751 53.4279 58.8035 52.2564L45.3739 38.8268Z" fill="#F5F5F5"/>
</svg>
