<svg width="400" height="1024" viewBox="0 0 400 1024" fill="none" xmlns="http://www.w3.org/2000/svg">
<g style="mix-blend-mode:multiply">
<rect x="-0.333008" width="400" height="1024" fill="#36454F"/>
</g>
<g style="mix-blend-mode:overlay">
<path fill-rule="evenodd" clip-rule="evenodd" d="M68.6682 380.1C134.302 360.865 177.053 344.396 197.12 314.296V318.45L197.138 314.269C197.636 313.521 198.12 312.765 198.59 312H200.31C200.785 312.774 201.275 313.538 201.779 314.294C221.846 344.393 264.599 360.865 330.231 380.1L330.25 368.631V379.383C330.249 566.934 287.503 631.947 201.483 710.901L201.357 711.01C200.936 711.609 200.239 712 199.45 712C198.649 712 197.941 711.595 197.522 710.979L197.473 710.937L197.434 710.901C111.413 631.947 68.6677 566.934 68.6672 379.383L68.6682 368.631V380.1ZM197.138 314.269V312L197.12 314.296L197.138 314.269ZM166.993 518.914L163.232 594.681C163.17 595.926 164.83 596.403 165.439 595.316L206.107 522.754L225.333 515.541L228.813 526.796C229.079 527.658 230.174 527.914 230.795 527.261L262.448 493.966C262.882 493.51 262.881 492.795 262.447 492.34L200.342 427.138C200.213 427.002 200.069 426.907 199.919 426.846C199.395 426.472 198.578 426.528 198.188 427.223L147.785 517.157C147.344 517.944 147.912 518.914 148.814 518.914H166.993Z" fill="url(#paint0_linear_637_4461)"/>
</g>
<defs>
<linearGradient id="paint0_linear_637_4461" x1="-2.91956" y1="219.629" x2="220.799" y2="860.474" gradientUnits="userSpaceOnUse">
<stop stop-color="#CACACA"/>
<stop offset="0.166667" stop-color="#5A5A5A"/>
<stop offset="0.333333" stop-color="#676565"/>
<stop offset="0.5" stop-color="#BDBDBD"/>
<stop offset="0.666667" stop-color="#818181"/>
<stop offset="0.833333" stop-color="#828282"/>
<stop offset="1" stop-color="#A8A8A8"/>
</linearGradient>
</defs>
</svg>
