<svg width="30" height="30" viewBox="0 0 30 30" fill="none" xmlns="http://www.w3.org/2000/svg">
<g clip-path="url(#clip0_686_5108)">
<path opacity="0.979" fill-rule="evenodd" clip-rule="evenodd" d="M5.06836 -0.0292969C11.6895 -0.0292969 18.3105 -0.0292969 24.9316 -0.0292969C27.7244 0.53688 29.404 2.21657 29.9707 5.00977C29.9707 5.83008 29.9707 6.65039 29.9707 7.4707C29.4765 8.30519 28.8124 8.47119 27.9785 7.96875C27.7482 7.73268 27.6213 7.44943 27.5977 7.11914C27.8695 5.53263 27.4301 4.19474 26.2793 3.10547C25.6588 2.63164 24.9557 2.37773 24.1699 2.34375C17.8808 2.32279 11.5917 2.34232 5.30273 2.40234C3.47112 2.81771 2.49455 3.96029 2.37305 5.83008C2.48157 7.64801 3.41907 8.79059 5.18555 9.25781C11.7665 9.33475 18.3485 9.37383 24.9316 9.375C27.7351 9.92262 29.4148 11.5925 29.9707 14.3848C29.9707 17.9004 29.9707 21.416 29.9707 24.9316C29.4043 27.7246 27.7246 29.4043 24.9316 29.9707C18.6621 29.9707 12.3926 29.9707 6.12305 29.9707C2.68554 29.3067 0.634764 27.2559 -0.0292969 23.8184C-0.0292969 17.5488 -0.0292969 11.2793 -0.0292969 5.00977C0.580776 2.23174 2.27999 0.552052 5.06836 -0.0292969ZM2.37305 10.6348C3.39146 11.3421 4.52428 11.7033 5.77148 11.7188C12.0801 11.7383 18.3887 11.7578 24.6973 11.7773C26.2303 12.1385 27.1775 13.0857 27.5391 14.6191C27.5781 17.9785 27.5781 21.3379 27.5391 24.6973C27.1031 26.4613 25.98 27.4281 24.1699 27.5977C18.4277 27.6367 12.6855 27.6367 6.94336 27.5977C4.93806 27.4798 3.52205 26.513 2.69531 24.6973C2.56188 24.3555 2.46422 24.004 2.40234 23.6426C2.37305 19.3067 2.36328 14.9708 2.37305 10.6348Z" fill="#380835"/>
<path opacity="0.973" fill-rule="evenodd" clip-rule="evenodd" d="M5.47832 4.65796C11.8065 4.64819 18.1346 4.65796 24.4627 4.68726C25.1647 4.96797 25.4284 5.48554 25.2537 6.23999C25.0456 6.71056 24.6843 6.97423 24.1697 7.03101C18.0369 7.07009 11.9041 7.07009 5.77129 7.03101C4.88468 6.8905 4.52335 6.37288 4.68731 5.47827C4.80547 5.05748 5.06914 4.78404 5.47832 4.65796Z" fill="#380835"/>
<path opacity="0.959" fill-rule="evenodd" clip-rule="evenodd" d="M23.4081 18.1937C24.7644 18.0949 25.3796 18.7199 25.2538 20.0687C24.9312 20.9189 24.316 21.2606 23.4081 21.0941C22.558 20.7715 22.2162 20.1563 22.3827 19.2484C22.5399 18.7104 22.8818 18.3588 23.4081 18.1937Z" fill="#380835"/>
</g>
<defs>
<clipPath id="clip0_686_5108">
<rect width="30" height="30" fill="white"/>
</clipPath>
</defs>
</svg>
